<svg width="25" height="25" viewBox="0 0 25 25" fill="none" xmlns="http://www.w3.org/2000/svg">
<path d="M5.49999 18.625V8.875C5.49999 8.67609 5.57901 8.48532 5.71966 8.34467C5.86032 8.20402 6.05108 8.125 6.24999 8.125C6.44891 8.125 6.63967 8.20402 6.78032 8.34467C6.92098 8.48532 6.99999 8.67609 6.99999 8.875V16.8147L17.7194 6.09437C17.8601 5.95364 18.051 5.87458 18.25 5.87458C18.449 5.87458 18.6399 5.95364 18.7806 6.09437C18.9214 6.23511 19.0004 6.42598 19.0004 6.625C19.0004 6.82402 18.9214 7.01489 18.7806 7.15563L8.06031 17.875H16C16.1989 17.875 16.3897 17.954 16.5303 18.0947C16.671 18.2353 16.75 18.4261 16.75 18.625C16.75 18.8239 16.671 19.0147 16.5303 19.1553C16.3897 19.296 16.1989 19.375 16 19.375H6.24999C6.05108 19.375 5.86032 19.296 5.71966 19.1553C5.57901 19.0147 5.49999 18.8239 5.49999 18.625Z" fill="white"/>
</svg>
