<svg width="19" height="19" viewBox="0 0 19 19" fill="none" xmlns="http://www.w3.org/2000/svg">
<g clip-path="url(#clip0_1_416)">
<path d="M7.28125 4.625V13.625H8.96875V9.96875H12.625V8.28125H8.96875V4.625H7.28125Z" fill="white"/>
<path d="M10.4313 0.614375C9.77875 -0.038125 8.72125 -0.038125 8.06875 0.614375L0.740504 7.94375C0.0880042 8.59625 0.0880042 9.65262 0.740504 10.304L8.071 17.6345C8.7235 18.287 9.77988 18.287 10.4313 17.6345L17.7618 10.304C18.4143 9.6515 18.4143 8.59512 17.7618 7.94375L10.4313 0.614375ZM8.85625 1.40187C8.96069 1.29745 9.10232 1.23879 9.25 1.23879C9.39769 1.23879 9.53932 1.29745 9.64375 1.40187L16.9743 8.73125C17.0787 8.83568 17.1373 8.97732 17.1373 9.125C17.1373 9.27268 17.0787 9.41432 16.9743 9.51875L9.64375 16.8492C9.53932 16.9537 9.39769 17.0123 9.25 17.0123C9.10232 17.0123 8.96069 16.9537 8.85625 16.8492L1.52575 9.51875C1.42133 9.41432 1.36267 9.27268 1.36267 9.125C1.36267 8.97732 1.42133 8.83568 1.52575 8.73125L8.85625 1.40075V1.40187Z" fill="white"/>
</g>
<defs>
<clipPath id="clip0_1_416">
<rect width="18" height="18" fill="white" transform="translate(0.25 0.125)"/>
</clipPath>
</defs>
</svg>
