<svg width="13" height="13" viewBox="0 0 13 13" fill="none" xmlns="http://www.w3.org/2000/svg">
<g clip-path="url(#clip0_1_411)">
<path d="M4.9375 3.5V9.5H6.0625V7.0625H8.5V5.9375H6.0625V3.5H4.9375Z" fill="black"/>
<path d="M7.03751 0.82625C6.60251 0.39125 5.89751 0.39125 5.46251 0.82625L0.577013 5.7125C0.142013 6.1475 0.142013 6.85175 0.577013 7.286L5.46401 12.173C5.89901 12.608 6.60326 12.608 7.03751 12.173L11.9245 7.286C12.3595 6.851 12.3595 6.14675 11.9245 5.7125L7.03751 0.82625ZM5.98751 1.35125C6.05713 1.28164 6.15156 1.24253 6.25001 1.24253C6.34847 1.24253 6.44289 1.28164 6.51251 1.35125L11.3995 6.2375C11.4691 6.30712 11.5082 6.40154 11.5082 6.5C11.5082 6.59846 11.4691 6.69288 11.3995 6.7625L6.51251 11.6495C6.44289 11.7191 6.34847 11.7582 6.25001 11.7582C6.15156 11.7582 6.05713 11.7191 5.98751 11.6495L1.10051 6.7625C1.0309 6.69288 0.99179 6.59846 0.99179 6.5C0.99179 6.40154 1.0309 6.30712 1.10051 6.2375L5.98751 1.3505V1.35125Z" fill="black"/>
</g>
<defs>
<clipPath id="clip0_1_411">
<rect width="12" height="12" fill="white" transform="translate(0.25 0.5)"/>
</clipPath>
</defs>
</svg>
