<svg width="24" height="24" viewBox="0 0 24 24" fill="none" xmlns="http://www.w3.org/2000/svg">
<path d="M20.916 9.5639C20.9688 9.44382 20.9975 9.3145 21.0003 9.18334C21.0031 9.05219 20.98 8.92176 20.9323 8.79954C20.8847 8.67731 20.8134 8.56567 20.7226 8.47102C20.6318 8.37636 20.5232 8.30054 20.403 8.2479L7.328 2.4919C6.333 2.0539 5.108 2.5429 4.683 3.5339L2.473 8.6879C2.26509 9.17542 2.25909 9.72552 2.45632 10.2175C2.65354 10.7094 3.03789 11.103 3.525 11.3119L9.563 13.8999L8.323 16.9999H4V13.9999H2V21.9999H4V18.9999H8.323C9.146 18.9999 9.875 18.5059 10.179 17.7419L11.401 14.6879L16.606 16.9179C16.8484 17.0219 17.1221 17.0259 17.3674 16.9291C17.6128 16.8323 17.81 16.6424 17.916 16.4009L18.228 15.6909L19.929 16.3709L21.929 11.3709L20.393 10.7579L20.916 9.5639ZM16.482 14.6899L4.313 9.4749L6.521 4.3229L18.683 9.6769L16.482 14.6899Z" fill="white"/>
</svg>
