<svg width="19" height="18" viewBox="0 0 19 18" fill="none" xmlns="http://www.w3.org/2000/svg">
<path d="M15.375 2.25H13.6875V1.6875C13.6875 1.53832 13.6282 1.39524 13.5227 1.28975C13.4173 1.18426 13.2742 1.125 13.125 1.125C12.9758 1.125 12.8327 1.18426 12.7273 1.28975C12.6218 1.39524 12.5625 1.53832 12.5625 1.6875V2.25H6.9375V1.6875C6.9375 1.53832 6.87824 1.39524 6.77275 1.28975C6.66726 1.18426 6.52418 1.125 6.375 1.125C6.22582 1.125 6.08274 1.18426 5.97725 1.28975C5.87176 1.39524 5.8125 1.53832 5.8125 1.6875V2.25H4.125C3.82663 2.25 3.54048 2.36853 3.3295 2.5795C3.11853 2.79048 3 3.07663 3 3.375V14.625C3 14.9234 3.11853 15.2095 3.3295 15.4205C3.54048 15.6315 3.82663 15.75 4.125 15.75H15.375C15.6734 15.75 15.9595 15.6315 16.1705 15.4205C16.3815 15.2095 16.5 14.9234 16.5 14.625V3.375C16.5 3.07663 16.3815 2.79048 16.1705 2.5795C15.9595 2.36853 15.6734 2.25 15.375 2.25ZM5.8125 3.375V3.9375C5.8125 4.08668 5.87176 4.22976 5.97725 4.33525C6.08274 4.44074 6.22582 4.5 6.375 4.5C6.52418 4.5 6.66726 4.44074 6.77275 4.33525C6.87824 4.22976 6.9375 4.08668 6.9375 3.9375V3.375H12.5625V3.9375C12.5625 4.08668 12.6218 4.22976 12.7273 4.33525C12.8327 4.44074 12.9758 4.5 13.125 4.5C13.2742 4.5 13.4173 4.44074 13.5227 4.33525C13.6282 4.22976 13.6875 4.08668 13.6875 3.9375V3.375H15.375V5.625H4.125V3.375H5.8125ZM15.375 14.625H4.125V6.75H15.375V14.625ZM10.5938 9.28125C10.5938 9.44813 10.5443 9.61126 10.4516 9.75001C10.3588 9.88877 10.2271 9.99691 10.0729 10.0608C9.91871 10.1246 9.74906 10.1413 9.58539 10.1088C9.42172 10.0762 9.27138 9.99587 9.15338 9.87787C9.03538 9.75987 8.95502 9.60953 8.92246 9.44586C8.88991 9.28219 8.90662 9.11254 8.97048 8.95836C9.03434 8.80419 9.14248 8.67241 9.28124 8.5797C9.41999 8.48698 9.58312 8.4375 9.75 8.4375C9.97378 8.4375 10.1884 8.52639 10.3466 8.68463C10.5049 8.84286 10.5938 9.05747 10.5938 9.28125ZM13.6875 9.28125C13.6875 9.44813 13.638 9.61126 13.5453 9.75001C13.4526 9.88877 13.3208 9.99691 13.1666 10.0608C13.0125 10.1246 12.8428 10.1413 12.6791 10.1088C12.5155 10.0762 12.3651 9.99587 12.2471 9.87787C12.1291 9.75987 12.0488 9.60953 12.0162 9.44586C11.9837 9.28219 12.0004 9.11254 12.0642 8.95836C12.1281 8.80419 12.2362 8.67241 12.375 8.5797C12.5137 8.48698 12.6769 8.4375 12.8438 8.4375C13.0675 8.4375 13.2821 8.52639 13.4404 8.68463C13.5986 8.84286 13.6875 9.05747 13.6875 9.28125ZM7.5 12.0938C7.5 12.2606 7.45052 12.4238 7.3578 12.5625C7.26509 12.7013 7.13331 12.8094 6.97914 12.8733C6.82496 12.9371 6.65531 12.9538 6.49164 12.9213C6.32797 12.8887 6.17763 12.8084 6.05963 12.6904C5.94163 12.5724 5.86127 12.422 5.82871 12.2584C5.79616 12.0947 5.81287 11.925 5.87673 11.7709C5.94059 11.6167 6.04873 11.4849 6.18749 11.3922C6.32624 11.2995 6.48937 11.25 6.65625 11.25C6.88003 11.25 7.09464 11.3389 7.25287 11.4971C7.41111 11.6554 7.5 11.87 7.5 12.0938ZM10.5938 12.0938C10.5938 12.2606 10.5443 12.4238 10.4516 12.5625C10.3588 12.7013 10.2271 12.8094 10.0729 12.8733C9.91871 12.9371 9.74906 12.9538 9.58539 12.9213C9.42172 12.8887 9.27138 12.8084 9.15338 12.6904C9.03538 12.5724 8.95502 12.422 8.92246 12.2584C8.88991 12.0947 8.90662 11.925 8.97048 11.7709C9.03434 11.6167 9.14248 11.4849 9.28124 11.3922C9.41999 11.2995 9.58312 11.25 9.75 11.25C9.97378 11.25 10.1884 11.3389 10.3466 11.4971C10.5049 11.6554 10.5938 11.87 10.5938 12.0938ZM13.6875 12.0938C13.6875 12.2606 13.638 12.4238 13.5453 12.5625C13.4526 12.7013 13.3208 12.8094 13.1666 12.8733C13.0125 12.9371 12.8428 12.9538 12.6791 12.9213C12.5155 12.8887 12.3651 12.8084 12.2471 12.6904C12.1291 12.5724 12.0488 12.422 12.0162 12.2584C11.9837 12.0947 12.0004 11.925 12.0642 11.7709C12.1281 11.6167 12.2362 11.4849 12.375 11.3922C12.5137 11.2995 12.6769 11.25 12.8438 11.25C13.0675 11.25 13.2821 11.3389 13.4404 11.4971C13.5986 11.6554 13.6875 11.87 13.6875 12.0938Z" fill="white"/>
</svg>
