<svg width="237" height="161" viewBox="0 0 237 161" fill="none" xmlns="http://www.w3.org/2000/svg">
<path d="M32.8393 41.4128L30.75 43.4243V98H206.25V63.3658V28.7316L204.161 23.6091C202.071 18.4866 197.893 8.2416 193.714 8.00425C189.536 7.7669 185.357 17.5372 181.179 22.4203C177 27.3035 172.821 27.2994 168.643 27.7867C164.464 28.2739 160.286 29.2525 156.107 32.2572C151.929 35.262 147.75 40.2929 143.571 39.4861C139.393 38.6793 135.214 32.0347 131.036 32.0859C126.857 32.1371 122.679 38.8841 118.5 38.7191C114.321 38.5541 110.143 31.4769 105.964 26.7289C101.786 21.9809 97.6071 19.5619 93.4286 23.2147C89.25 26.8675 85.0714 36.5921 80.8929 42.0348C76.7143 47.4776 72.5357 48.6386 68.3571 51.1223C64.1786 53.606 60 57.4125 55.8214 54.3384C51.6429 51.2644 47.4643 41.3098 43.2857 38.344C39.1071 35.3782 34.9286 39.4013 32.8393 41.4128Z" fill="url(#paint0_linear_1_642)" stroke="#00F7F1" stroke-width="0.75"/>
<path d="M32.8393 56.0312L30.75 57.5231V98H206.25V72.313V46.6259L204.161 42.8267C202.071 39.0276 197.893 31.4292 193.714 31.2531C189.536 31.0771 185.357 38.3234 181.179 41.9451C177 45.5667 172.821 45.5638 168.643 45.9251C164.464 46.2865 160.286 47.0122 156.107 49.2408C151.929 51.4693 147.75 55.2006 143.571 54.6022C139.393 54.0038 135.214 49.0757 131.036 49.1137C126.857 49.1517 122.679 54.1557 118.5 54.0333C114.321 53.9109 110.143 48.6621 105.964 45.1406C101.786 41.6191 97.6071 39.8251 93.4286 42.5342C89.25 45.2434 85.0714 52.4558 80.8929 56.4925C76.7143 60.5292 72.5357 61.3903 68.3571 63.2324C64.1786 65.0745 60 67.8976 55.8214 65.6177C51.6429 63.3377 47.4643 55.9547 43.2857 53.7551C39.1071 51.5555 34.9286 54.5393 32.8393 56.0312Z" fill="url(#paint1_linear_1_642)" stroke="#FFED00" stroke-width="0.75"/>
<mask id="path-4-inside-1_1_642" fill="white">
<path d="M15 8H221.25V23H15V8Z"/>
</mask>
<path d="M221.25 22.25H15V23.75H221.25V22.25Z" fill="white" fill-opacity="0.2" mask="url(#path-4-inside-1_1_642)"/>
<path d="M18.1597 19H17.4478V14.4473C17.4478 14.2744 17.4478 14.1265 17.4478 14.0034C17.4507 13.8774 17.4536 13.7632 17.4565 13.6606C17.4624 13.5552 17.4697 13.4482 17.4785 13.3398C17.3877 13.4336 17.3027 13.5142 17.2236 13.5815C17.1445 13.646 17.0464 13.7266 16.9292 13.8232L16.1953 14.4121L15.813 13.9155L17.5532 12.5752H18.1597V19ZM21.7544 17.9541L21.8115 18.0552C21.7588 18.269 21.6914 18.4976 21.6094 18.7407C21.5303 18.9839 21.4424 19.2271 21.3457 19.4702C21.252 19.7163 21.1567 19.9463 21.0601 20.1602H20.5151C20.5767 19.9258 20.6367 19.6782 20.6953 19.4175C20.7539 19.1597 20.8066 18.9048 20.8535 18.6528C20.9033 18.3979 20.9429 18.165 20.9722 17.9541H21.7544ZM27.1685 15.7788C27.1685 16.3003 27.1289 16.7661 27.0498 17.1763C26.9707 17.5864 26.8462 17.9336 26.6763 18.2178C26.5063 18.502 26.2866 18.7188 26.0171 18.8682C25.7476 19.0146 25.4238 19.0879 25.0459 19.0879C24.5684 19.0879 24.1729 18.9575 23.8594 18.6968C23.5488 18.436 23.3159 18.0596 23.1606 17.5674C23.0083 17.0723 22.9321 16.4761 22.9321 15.7788C22.9321 15.0933 23.001 14.5044 23.1387 14.0122C23.2793 13.5171 23.5049 13.1377 23.8154 12.874C24.126 12.6074 24.5361 12.4741 25.0459 12.4741C25.5293 12.4741 25.9277 12.606 26.2412 12.8696C26.5547 13.1304 26.7876 13.5083 26.9399 14.0034C27.0923 14.4956 27.1685 15.0874 27.1685 15.7788ZM23.666 15.7788C23.666 16.3765 23.7114 16.8745 23.8022 17.2729C23.8931 17.6714 24.0396 17.9702 24.2417 18.1694C24.4468 18.3657 24.7148 18.4639 25.0459 18.4639C25.377 18.4639 25.6436 18.3657 25.8457 18.1694C26.0508 17.9731 26.1987 17.6758 26.2896 17.2773C26.3833 16.8789 26.4302 16.3794 26.4302 15.7788C26.4302 15.1899 26.3848 14.6978 26.2939 14.3022C26.2031 13.9038 26.0566 13.605 25.8545 13.4058C25.6523 13.2036 25.3828 13.1025 25.0459 13.1025C24.709 13.1025 24.4395 13.2036 24.2373 13.4058C24.0352 13.605 23.8887 13.9038 23.7979 14.3022C23.71 14.6978 23.666 15.1899 23.666 15.7788Z" fill="white"/>
<mask id="path-7-inside-2_1_642" fill="white">
<path d="M15 23H221.25V38H15V23Z"/>
</mask>
<path d="M221.25 37.25H15V38.75H221.25V37.25Z" fill="white" fill-opacity="0.2" mask="url(#path-7-inside-2_1_642)"/>
<path d="M19.689 30.7788C19.689 31.3003 19.6494 31.7661 19.5703 32.1763C19.4912 32.5864 19.3667 32.9336 19.1968 33.2178C19.0269 33.502 18.8071 33.7188 18.5376 33.8682C18.2681 34.0146 17.9443 34.0879 17.5664 34.0879C17.0889 34.0879 16.6934 33.9575 16.3799 33.6968C16.0693 33.436 15.8364 33.0596 15.6812 32.5674C15.5288 32.0723 15.4526 31.4761 15.4526 30.7788C15.4526 30.0933 15.5215 29.5044 15.6592 29.0122C15.7998 28.5171 16.0254 28.1377 16.3359 27.874C16.6465 27.6074 17.0566 27.4741 17.5664 27.4741C18.0498 27.4741 18.4482 27.606 18.7617 27.8696C19.0752 28.1304 19.3081 28.5083 19.4604 29.0034C19.6128 29.4956 19.689 30.0874 19.689 30.7788ZM16.1865 30.7788C16.1865 31.3765 16.2319 31.8745 16.3228 32.2729C16.4136 32.6714 16.5601 32.9702 16.7622 33.1694C16.9673 33.3657 17.2354 33.4639 17.5664 33.4639C17.8975 33.4639 18.1641 33.3657 18.3662 33.1694C18.5713 32.9731 18.7192 32.6758 18.8101 32.2773C18.9038 31.8789 18.9507 31.3794 18.9507 30.7788C18.9507 30.1899 18.9053 29.6978 18.8145 29.3022C18.7236 28.9038 18.5771 28.605 18.375 28.4058C18.1729 28.2036 17.9033 28.1025 17.5664 28.1025C17.2295 28.1025 16.96 28.2036 16.7578 28.4058C16.5557 28.605 16.4092 28.9038 16.3184 29.3022C16.2305 29.6978 16.1865 30.1899 16.1865 30.7788ZM21.7544 32.9541L21.8115 33.0552C21.7588 33.269 21.6914 33.4976 21.6094 33.7407C21.5303 33.9839 21.4424 34.2271 21.3457 34.4702C21.252 34.7163 21.1567 34.9463 21.0601 35.1602H20.5151C20.5767 34.9258 20.6367 34.6782 20.6953 34.4175C20.7539 34.1597 20.8066 33.9048 20.8535 33.6528C20.9033 33.3979 20.9429 33.165 20.9722 32.9541H21.7544ZM25.0459 27.4829C25.418 27.4829 25.7476 27.5415 26.0347 27.6587C26.3218 27.7759 26.5459 27.9487 26.707 28.1772C26.8711 28.4028 26.9531 28.6812 26.9531 29.0122C26.9531 29.2729 26.896 29.5015 26.7817 29.6978C26.6704 29.8911 26.5195 30.061 26.3291 30.2075C26.1387 30.3511 25.9277 30.48 25.6963 30.5942C25.9717 30.7202 26.2192 30.8623 26.439 31.0205C26.6616 31.1787 26.8374 31.3647 26.9663 31.5786C27.0952 31.7925 27.1597 32.0459 27.1597 32.3389C27.1597 32.6992 27.0718 33.0112 26.896 33.2749C26.7231 33.5356 26.48 33.7363 26.1665 33.877C25.853 34.0176 25.4854 34.0879 25.0635 34.0879C24.6094 34.0879 24.2227 34.0205 23.9033 33.8857C23.5869 33.748 23.3452 33.5518 23.1782 33.2969C23.0142 33.0391 22.9321 32.73 22.9321 32.3696C22.9321 32.0737 22.9951 31.8174 23.1211 31.6006C23.2471 31.3809 23.4141 31.1919 23.6221 31.0337C23.8301 30.8755 24.0571 30.7422 24.3032 30.6338C24.0894 30.5166 23.8931 30.3833 23.7144 30.2339C23.5386 30.0845 23.3979 29.9102 23.2925 29.7109C23.1899 29.5088 23.1387 29.2744 23.1387 29.0078C23.1387 28.6826 23.2207 28.4072 23.3848 28.1816C23.5518 27.9531 23.7788 27.7803 24.0659 27.6631C24.356 27.543 24.6826 27.4829 25.0459 27.4829ZM23.6484 32.374C23.6484 32.7021 23.7642 32.9731 23.9956 33.187C24.2271 33.3979 24.5771 33.5034 25.0459 33.5034C25.4912 33.5034 25.8354 33.3979 26.0786 33.187C26.3218 32.9731 26.4434 32.6934 26.4434 32.3477C26.4434 32.1338 26.3877 31.9463 26.2764 31.7852C26.165 31.6211 26.0068 31.4746 25.8018 31.3457C25.5967 31.2168 25.355 31.0996 25.0767 30.9941L24.9185 30.937C24.6489 31.0483 24.4189 31.1729 24.2285 31.3105C24.041 31.4453 23.8975 31.5991 23.7979 31.772C23.6982 31.9448 23.6484 32.1455 23.6484 32.374ZM25.0371 28.0806C24.6914 28.0806 24.4087 28.1641 24.189 28.3311C23.9692 28.4951 23.8594 28.7324 23.8594 29.043C23.8594 29.2656 23.9121 29.4546 24.0176 29.6099C24.126 29.7622 24.2725 29.894 24.457 30.0054C24.6416 30.1138 24.8481 30.2148 25.0767 30.3086C25.2993 30.2148 25.4971 30.1123 25.6699 30.001C25.8428 29.8867 25.979 29.752 26.0786 29.5967C26.1782 29.4414 26.228 29.2554 26.228 29.0386C26.228 28.728 26.1182 28.4907 25.8984 28.3267C25.6816 28.1626 25.3945 28.0806 25.0371 28.0806Z" fill="white"/>
<mask id="path-10-inside-3_1_642" fill="white">
<path d="M15 38H221.25V53H15V38Z"/>
</mask>
<path d="M221.25 52.25H15V53.75H221.25V52.25Z" fill="white" fill-opacity="0.2" mask="url(#path-10-inside-3_1_642)"/>
<path d="M19.689 45.7788C19.689 46.3003 19.6494 46.7661 19.5703 47.1763C19.4912 47.5864 19.3667 47.9336 19.1968 48.2178C19.0269 48.502 18.8071 48.7188 18.5376 48.8682C18.2681 49.0146 17.9443 49.0879 17.5664 49.0879C17.0889 49.0879 16.6934 48.9575 16.3799 48.6968C16.0693 48.436 15.8364 48.0596 15.6812 47.5674C15.5288 47.0723 15.4526 46.4761 15.4526 45.7788C15.4526 45.0933 15.5215 44.5044 15.6592 44.0122C15.7998 43.5171 16.0254 43.1377 16.3359 42.874C16.6465 42.6074 17.0566 42.4741 17.5664 42.4741C18.0498 42.4741 18.4482 42.606 18.7617 42.8696C19.0752 43.1304 19.3081 43.5083 19.4604 44.0034C19.6128 44.4956 19.689 45.0874 19.689 45.7788ZM16.1865 45.7788C16.1865 46.3765 16.2319 46.8745 16.3228 47.2729C16.4136 47.6714 16.5601 47.9702 16.7622 48.1694C16.9673 48.3657 17.2354 48.4639 17.5664 48.4639C17.8975 48.4639 18.1641 48.3657 18.3662 48.1694C18.5713 47.9731 18.7192 47.6758 18.8101 47.2773C18.9038 46.8789 18.9507 46.3794 18.9507 45.7788C18.9507 45.1899 18.9053 44.6978 18.8145 44.3022C18.7236 43.9038 18.5771 43.605 18.375 43.4058C18.1729 43.2036 17.9033 43.1025 17.5664 43.1025C17.2295 43.1025 16.96 43.2036 16.7578 43.4058C16.5557 43.605 16.4092 43.9038 16.3184 44.3022C16.2305 44.6978 16.1865 45.1899 16.1865 45.7788ZM21.7544 47.9541L21.8115 48.0552C21.7588 48.269 21.6914 48.4976 21.6094 48.7407C21.5303 48.9839 21.4424 49.2271 21.3457 49.4702C21.252 49.7163 21.1567 49.9463 21.0601 50.1602H20.5151C20.5767 49.9258 20.6367 49.6782 20.6953 49.4175C20.7539 49.1597 20.8066 48.9048 20.8535 48.6528C20.9033 48.3979 20.9429 48.165 20.9722 47.9541H21.7544ZM22.9893 46.2534C22.9893 45.8667 23.0156 45.4888 23.0684 45.1196C23.124 44.7505 23.2163 44.4077 23.3452 44.0913C23.4741 43.772 23.6499 43.4922 23.8726 43.252C24.0952 43.0117 24.3721 42.8242 24.7031 42.6895C25.0371 42.5518 25.437 42.4829 25.9028 42.4829C26.0347 42.4829 26.1768 42.4902 26.3291 42.5049C26.4814 42.5166 26.6074 42.5371 26.707 42.5664V43.1948C26.5986 43.1567 26.4741 43.1289 26.3335 43.1113C26.1958 43.0938 26.0566 43.085 25.916 43.085C25.3711 43.085 24.9419 43.2036 24.6284 43.4409C24.3179 43.6782 24.0938 44.0005 23.9561 44.4077C23.8184 44.812 23.7393 45.2676 23.7188 45.7744H23.7671C23.8579 45.6279 23.9736 45.4961 24.1143 45.3789C24.2549 45.2588 24.4248 45.1636 24.624 45.0933C24.8262 45.0229 25.0605 44.9878 25.3271 44.9878C25.7021 44.9878 26.0288 45.064 26.3071 45.2163C26.5884 45.3687 26.8052 45.5898 26.9575 45.8799C27.1128 46.1699 27.1904 46.5215 27.1904 46.9346C27.1904 47.377 27.1084 47.7593 26.9443 48.0815C26.7803 48.4038 26.5459 48.6528 26.2412 48.8286C25.9395 49.0015 25.5791 49.0879 25.1602 49.0879C24.8467 49.0879 24.5581 49.0278 24.2944 48.9077C24.0308 48.7876 23.8008 48.6089 23.6045 48.3716C23.4111 48.1343 23.2603 47.8398 23.1519 47.4883C23.0435 47.1338 22.9893 46.7222 22.9893 46.2534ZM25.1514 48.4727C25.5498 48.4727 25.8691 48.3452 26.1094 48.0903C26.3496 47.8354 26.4697 47.4502 26.4697 46.9346C26.4697 46.5127 26.3628 46.1787 26.1489 45.9326C25.9351 45.6865 25.6128 45.5635 25.1821 45.5635C24.8892 45.5635 24.6343 45.625 24.4175 45.748C24.2007 45.8682 24.0322 46.0205 23.9121 46.2051C23.792 46.3896 23.7319 46.5771 23.7319 46.7676C23.7319 46.9609 23.7598 47.1572 23.8154 47.3564C23.874 47.5557 23.9619 47.7402 24.0791 47.9102C24.1963 48.0801 24.3442 48.2163 24.5229 48.3188C24.7017 48.4214 24.9111 48.4727 25.1514 48.4727Z" fill="white"/>
<mask id="path-13-inside-4_1_642" fill="white">
<path d="M15 53H221.25V68H15V53Z"/>
</mask>
<path d="M221.25 67.25H15V68.75H221.25V67.25Z" fill="white" fill-opacity="0.2" mask="url(#path-13-inside-4_1_642)"/>
<path d="M19.689 60.7788C19.689 61.3003 19.6494 61.7661 19.5703 62.1763C19.4912 62.5864 19.3667 62.9336 19.1968 63.2178C19.0269 63.502 18.8071 63.7188 18.5376 63.8682C18.2681 64.0146 17.9443 64.0879 17.5664 64.0879C17.0889 64.0879 16.6934 63.9575 16.3799 63.6968C16.0693 63.436 15.8364 63.0596 15.6812 62.5674C15.5288 62.0723 15.4526 61.4761 15.4526 60.7788C15.4526 60.0933 15.5215 59.5044 15.6592 59.0122C15.7998 58.5171 16.0254 58.1377 16.3359 57.874C16.6465 57.6074 17.0566 57.4741 17.5664 57.4741C18.0498 57.4741 18.4482 57.606 18.7617 57.8696C19.0752 58.1304 19.3081 58.5083 19.4604 59.0034C19.6128 59.4956 19.689 60.0874 19.689 60.7788ZM16.1865 60.7788C16.1865 61.3765 16.2319 61.8745 16.3228 62.2729C16.4136 62.6714 16.5601 62.9702 16.7622 63.1694C16.9673 63.3657 17.2354 63.4639 17.5664 63.4639C17.8975 63.4639 18.1641 63.3657 18.3662 63.1694C18.5713 62.9731 18.7192 62.6758 18.8101 62.2773C18.9038 61.8789 18.9507 61.3794 18.9507 60.7788C18.9507 60.1899 18.9053 59.6978 18.8145 59.3022C18.7236 58.9038 18.5771 58.605 18.375 58.4058C18.1729 58.2036 17.9033 58.1025 17.5664 58.1025C17.2295 58.1025 16.96 58.2036 16.7578 58.4058C16.5557 58.605 16.4092 58.9038 16.3184 59.3022C16.2305 59.6978 16.1865 60.1899 16.1865 60.7788ZM21.7544 62.9541L21.8115 63.0552C21.7588 63.269 21.6914 63.4976 21.6094 63.7407C21.5303 63.9839 21.4424 64.2271 21.3457 64.4702C21.252 64.7163 21.1567 64.9463 21.0601 65.1602H20.5151C20.5767 64.9258 20.6367 64.6782 20.6953 64.4175C20.7539 64.1597 20.8066 63.9048 20.8535 63.6528C20.9033 63.3979 20.9429 63.165 20.9722 62.9541H21.7544ZM27.4541 62.5103H26.4917V64H25.7798V62.5103H22.6729V61.895L25.7314 57.54H26.4917V61.8511H27.4541V62.5103ZM25.7798 61.8511V59.7505C25.7798 59.5894 25.7812 59.4443 25.7842 59.3154C25.7871 59.1836 25.7915 59.062 25.7974 58.9507C25.8032 58.8364 25.8076 58.728 25.8105 58.6255C25.8164 58.5229 25.8208 58.4219 25.8237 58.3223H25.7886C25.7329 58.4395 25.6685 58.564 25.5952 58.6958C25.5249 58.8247 25.4531 58.9404 25.3799 59.043L23.3979 61.8511H25.7798Z" fill="white"/>
<mask id="path-16-inside-5_1_642" fill="white">
<path d="M15 68H221.25V83H15V68Z"/>
</mask>
<path d="M221.25 82.25H15V83.75H221.25V82.25Z" fill="white" fill-opacity="0.2" mask="url(#path-16-inside-5_1_642)"/>
<path d="M19.689 75.7788C19.689 76.3003 19.6494 76.7661 19.5703 77.1763C19.4912 77.5864 19.3667 77.9336 19.1968 78.2178C19.0269 78.502 18.8071 78.7188 18.5376 78.8682C18.2681 79.0146 17.9443 79.0879 17.5664 79.0879C17.0889 79.0879 16.6934 78.9575 16.3799 78.6968C16.0693 78.436 15.8364 78.0596 15.6812 77.5674C15.5288 77.0723 15.4526 76.4761 15.4526 75.7788C15.4526 75.0933 15.5215 74.5044 15.6592 74.0122C15.7998 73.5171 16.0254 73.1377 16.3359 72.874C16.6465 72.6074 17.0566 72.4741 17.5664 72.4741C18.0498 72.4741 18.4482 72.606 18.7617 72.8696C19.0752 73.1304 19.3081 73.5083 19.4604 74.0034C19.6128 74.4956 19.689 75.0874 19.689 75.7788ZM16.1865 75.7788C16.1865 76.3765 16.2319 76.8745 16.3228 77.2729C16.4136 77.6714 16.5601 77.9702 16.7622 78.1694C16.9673 78.3657 17.2354 78.4639 17.5664 78.4639C17.8975 78.4639 18.1641 78.3657 18.3662 78.1694C18.5713 77.9731 18.7192 77.6758 18.8101 77.2773C18.9038 76.8789 18.9507 76.3794 18.9507 75.7788C18.9507 75.1899 18.9053 74.6978 18.8145 74.3022C18.7236 73.9038 18.5771 73.605 18.375 73.4058C18.1729 73.2036 17.9033 73.1025 17.5664 73.1025C17.2295 73.1025 16.96 73.2036 16.7578 73.4058C16.5557 73.605 16.4092 73.9038 16.3184 74.3022C16.2305 74.6978 16.1865 75.1899 16.1865 75.7788ZM21.7544 77.9541L21.8115 78.0552C21.7588 78.269 21.6914 78.4976 21.6094 78.7407C21.5303 78.9839 21.4424 79.2271 21.3457 79.4702C21.252 79.7163 21.1567 79.9463 21.0601 80.1602H20.5151C20.5767 79.9258 20.6367 79.6782 20.6953 79.4175C20.7539 79.1597 20.8066 78.9048 20.8535 78.6528C20.9033 78.3979 20.9429 78.165 20.9722 77.9541H21.7544ZM27.1333 79H22.9233V78.3892L24.6416 76.6445C24.9609 76.3223 25.229 76.0352 25.4458 75.7832C25.6655 75.5312 25.8325 75.2837 25.9468 75.0405C26.061 74.7944 26.1182 74.5249 26.1182 74.2319C26.1182 73.8687 26.0098 73.5918 25.793 73.4014C25.5791 73.208 25.2964 73.1113 24.9448 73.1113C24.6372 73.1113 24.3647 73.1641 24.1274 73.2695C23.8901 73.375 23.647 73.5244 23.3979 73.7178L23.0068 73.2256C23.1768 73.082 23.3613 72.9546 23.5605 72.8433C23.7627 72.7319 23.978 72.644 24.2065 72.5796C24.438 72.5151 24.6841 72.4829 24.9448 72.4829C25.3403 72.4829 25.6816 72.5518 25.9688 72.6895C26.2559 72.8271 26.4771 73.0234 26.6323 73.2783C26.7905 73.5332 26.8696 73.8364 26.8696 74.188C26.8696 74.5278 26.8022 74.8442 26.6675 75.1372C26.5327 75.4272 26.3438 75.7158 26.1006 76.0029C25.8574 76.2871 25.5732 76.5889 25.248 76.9082L23.8506 78.3013V78.332H27.1333V79Z" fill="white"/>
<mask id="path-19-inside-6_1_642" fill="white">
<path d="M15 83H221.25V98H15V83Z"/>
</mask>
<path d="M221.25 96.5H15V99.5H221.25V96.5Z" fill="#00F7F1" mask="url(#path-19-inside-6_1_642)"/>
<path d="M19.689 90.7788C19.689 91.3003 19.6494 91.7661 19.5703 92.1763C19.4912 92.5864 19.3667 92.9336 19.1968 93.2178C19.0269 93.502 18.8071 93.7188 18.5376 93.8682C18.2681 94.0146 17.9443 94.0879 17.5664 94.0879C17.0889 94.0879 16.6934 93.9575 16.3799 93.6968C16.0693 93.436 15.8364 93.0596 15.6812 92.5674C15.5288 92.0723 15.4526 91.4761 15.4526 90.7788C15.4526 90.0933 15.5215 89.5044 15.6592 89.0122C15.7998 88.5171 16.0254 88.1377 16.3359 87.874C16.6465 87.6074 17.0566 87.4741 17.5664 87.4741C18.0498 87.4741 18.4482 87.606 18.7617 87.8696C19.0752 88.1304 19.3081 88.5083 19.4604 89.0034C19.6128 89.4956 19.689 90.0874 19.689 90.7788ZM16.1865 90.7788C16.1865 91.3765 16.2319 91.8745 16.3228 92.2729C16.4136 92.6714 16.5601 92.9702 16.7622 93.1694C16.9673 93.3657 17.2354 93.4639 17.5664 93.4639C17.8975 93.4639 18.1641 93.3657 18.3662 93.1694C18.5713 92.9731 18.7192 92.6758 18.8101 92.2773C18.9038 91.8789 18.9507 91.3794 18.9507 90.7788C18.9507 90.1899 18.9053 89.6978 18.8145 89.3022C18.7236 88.9038 18.5771 88.605 18.375 88.4058C18.1729 88.2036 17.9033 88.1025 17.5664 88.1025C17.2295 88.1025 16.96 88.2036 16.7578 88.4058C16.5557 88.605 16.4092 88.9038 16.3184 89.3022C16.2305 89.6978 16.1865 90.1899 16.1865 90.7788Z" fill="white"/>
<path d="M34.25 148.752V152.962H33.6392L31.8945 151.244C31.5723 150.925 31.2852 150.657 31.0332 150.44C30.7812 150.22 30.5337 150.053 30.2905 149.939C30.0444 149.825 29.7749 149.768 29.4819 149.768C29.1186 149.768 28.8418 149.876 28.6514 150.093C28.458 150.307 28.3613 150.589 28.3613 150.941C28.3613 151.248 28.4141 151.521 28.5195 151.758C28.625 151.996 28.7744 152.239 28.9678 152.488L28.4756 152.879C28.332 152.709 28.2046 152.524 28.0933 152.325C27.9819 152.123 27.894 151.908 27.8296 151.679C27.7651 151.448 27.7329 151.202 27.7329 150.941C27.7329 150.545 27.8018 150.204 27.9395 149.917C28.0771 149.63 28.2734 149.409 28.5283 149.253C28.7832 149.095 29.0864 149.016 29.438 149.016C29.7778 149.016 30.0942 149.083 30.3872 149.218C30.6772 149.353 30.9658 149.542 31.2529 149.785C31.5371 150.028 31.8389 150.312 32.1582 150.638L33.5513 152.035H33.582V148.752H34.25ZM34.25 143.602V147.812H33.6392L31.8945 146.094C31.5723 145.774 31.2852 145.506 31.0332 145.289C30.7812 145.07 30.5337 144.903 30.2905 144.789C30.0444 144.674 29.7749 144.617 29.4819 144.617C29.1186 144.617 28.8418 144.726 28.6514 144.942C28.458 145.156 28.3613 145.439 28.3613 145.79C28.3613 146.098 28.4141 146.371 28.5195 146.608C28.625 146.845 28.7744 147.088 28.9678 147.337L28.4756 147.728C28.332 147.559 28.2046 147.374 28.0933 147.175C27.9819 146.973 27.894 146.757 27.8296 146.529C27.7651 146.297 27.7329 146.051 27.7329 145.79C27.7329 145.395 27.8018 145.054 27.9395 144.767C28.0771 144.479 28.2734 144.258 28.5283 144.103C28.7832 143.945 29.0864 143.866 29.438 143.866C29.7778 143.866 30.0942 143.933 30.3872 144.068C30.6772 144.203 30.9658 144.392 31.2529 144.635C31.5371 144.878 31.8389 145.162 32.1582 145.487L33.5513 146.885H33.582V143.602H34.25ZM27.8252 139.902L34.25 142.292V143.013L27.8252 140.618V139.902ZM31.0288 135.112C31.5503 135.112 32.0161 135.151 32.4263 135.23C32.8364 135.31 33.1836 135.434 33.4678 135.604C33.7519 135.774 33.9687 135.994 34.1182 136.263C34.2646 136.533 34.3379 136.856 34.3379 137.234C34.3379 137.712 34.2075 138.107 33.9468 138.421C33.686 138.731 33.3096 138.964 32.8174 139.12C32.3223 139.272 31.7261 139.348 31.0288 139.348C30.3433 139.348 29.7544 139.279 29.2622 139.142C28.7671 139.001 28.3877 138.775 28.124 138.465C27.8574 138.154 27.7241 137.744 27.7241 137.234C27.7241 136.751 27.856 136.352 28.1196 136.039C28.3804 135.726 28.7583 135.493 29.2534 135.34C29.7456 135.188 30.3374 135.112 31.0288 135.112ZM31.0288 138.614C31.6265 138.614 32.1245 138.569 32.5229 138.478C32.9214 138.387 33.2202 138.241 33.4194 138.039C33.6157 137.833 33.7139 137.565 33.7139 137.234C33.7139 136.903 33.6157 136.637 33.4194 136.435C33.2231 136.229 32.9258 136.081 32.5273 135.991C32.1289 135.897 31.6294 135.85 31.0288 135.85C30.4399 135.85 29.9478 135.895 29.5522 135.986C29.1538 136.077 28.855 136.224 28.6558 136.426C28.4536 136.628 28.3525 136.897 28.3525 137.234C28.3525 137.571 28.4536 137.841 28.6558 138.043C28.855 138.245 29.1538 138.392 29.5522 138.482C29.9478 138.57 30.4399 138.614 31.0288 138.614ZM30.3213 132.176C30.3213 131.74 30.396 131.36 30.5454 131.038C30.6919 130.716 30.9058 130.467 31.187 130.291C31.4683 130.112 31.8096 130.023 32.2109 130.023C32.6504 130.023 33.0298 130.118 33.3491 130.309C33.6655 130.499 33.9102 130.773 34.083 131.13C34.2529 131.488 34.3379 131.915 34.3379 132.414C34.3379 132.748 34.3086 133.058 34.25 133.345C34.1914 133.632 34.1035 133.874 33.9863 134.07H33.292C33.4209 133.856 33.5234 133.597 33.5996 133.292C33.6758 132.988 33.7139 132.692 33.7139 132.405C33.7139 132.08 33.6626 131.795 33.5601 131.552C33.4546 131.306 33.2964 131.116 33.0854 130.981C32.8716 130.843 32.6035 130.774 32.2812 130.774C31.8535 130.774 31.5239 130.906 31.2925 131.17C31.0581 131.431 30.9409 131.844 30.9409 132.409C30.9409 132.591 30.9556 132.79 30.9849 133.007C31.0142 133.224 31.0464 133.402 31.0815 133.543L30.8398 133.912L27.8252 133.666V130.471H28.4932V133.042L30.4311 133.205C30.4077 133.093 30.3843 132.95 30.3608 132.774C30.3345 132.598 30.3213 132.399 30.3213 132.176ZM27.8252 126.296L34.25 128.687V129.408L27.8252 127.013V126.296ZM34.25 121.541V125.751H33.6392L31.8945 124.033C31.5723 123.714 31.2852 123.446 31.0332 123.229C30.7812 123.009 30.5337 122.842 30.2905 122.728C30.0444 122.614 29.7749 122.557 29.4819 122.557C29.1186 122.557 28.8418 122.665 28.6514 122.882C28.458 123.096 28.3613 123.378 28.3613 123.73C28.3613 124.038 28.4141 124.31 28.5195 124.547C28.625 124.785 28.7744 125.028 28.9678 125.277L28.4756 125.668C28.332 125.498 28.2046 125.313 28.0933 125.114C27.9819 124.912 27.894 124.697 27.8296 124.468C27.7651 124.237 27.7329 123.991 27.7329 123.73C27.7329 123.334 27.8018 122.993 27.9395 122.706C28.0771 122.419 28.2734 122.198 28.5283 122.042C28.7832 121.884 29.0864 121.805 29.438 121.805C29.7778 121.805 30.0942 121.873 30.3872 122.007C30.6772 122.142 30.9658 122.331 31.2529 122.574C31.5371 122.817 31.8389 123.102 32.1582 123.427L33.5513 124.824H33.582V121.541H34.25ZM31.0288 116.356C31.5503 116.356 32.0161 116.395 32.4263 116.475C32.8364 116.554 33.1836 116.678 33.4678 116.848C33.7519 117.018 33.9687 117.238 34.1182 117.507C34.2646 117.777 34.3379 118.101 34.3379 118.478C34.3379 118.956 34.2075 119.352 33.9468 119.665C33.686 119.976 33.3096 120.208 32.8174 120.364C32.3223 120.516 31.7261 120.592 31.0288 120.592C30.3433 120.592 29.7544 120.523 29.2622 120.386C28.7671 120.245 28.3877 120.019 28.124 119.709C27.8574 119.398 27.7241 118.988 27.7241 118.478C27.7241 117.995 27.856 117.597 28.1196 117.283C28.3804 116.97 28.7583 116.737 29.2534 116.584C29.7456 116.432 30.3374 116.356 31.0288 116.356ZM31.0288 119.858C31.6265 119.858 32.1245 119.813 32.5229 119.722C32.9214 119.631 33.2202 119.485 33.4194 119.283C33.6157 119.078 33.7139 118.81 33.7139 118.478C33.7139 118.147 33.6157 117.881 33.4194 117.679C33.2231 117.474 32.9258 117.326 32.5273 117.235C32.1289 117.141 31.6294 117.094 31.0288 117.094C30.4399 117.094 29.9478 117.14 29.5522 117.23C29.1538 117.321 28.855 117.468 28.6558 117.67C28.4536 117.872 28.3525 118.142 28.3525 118.478C28.3525 118.815 28.4536 119.085 28.6558 119.287C28.855 119.489 29.1538 119.636 29.5522 119.727C29.9478 119.814 30.4399 119.858 31.0288 119.858ZM34.25 111.241V115.451H33.6392L31.8945 113.732C31.5723 113.413 31.2852 113.145 31.0332 112.928C30.7812 112.708 30.5337 112.541 30.2905 112.427C30.0444 112.313 29.7749 112.256 29.4819 112.256C29.1186 112.256 28.8418 112.364 28.6514 112.581C28.458 112.795 28.3613 113.078 28.3613 113.429C28.3613 113.737 28.4141 114.009 28.5195 114.247C28.625 114.484 28.7744 114.727 28.9678 114.976L28.4756 115.367C28.332 115.197 28.2046 115.013 28.0933 114.813C27.9819 114.611 27.894 114.396 27.8296 114.167C27.7651 113.936 27.7329 113.69 27.7329 113.429C27.7329 113.034 27.8018 112.692 27.9395 112.405C28.0771 112.118 28.2734 111.897 28.5283 111.742C28.7832 111.583 29.0864 111.504 29.438 111.504C29.7778 111.504 30.0942 111.572 30.3872 111.707C30.6772 111.841 30.9658 112.03 31.2529 112.273C31.5371 112.517 31.8389 112.801 32.1582 113.126L33.5513 114.523H33.582V111.241H34.25ZM32.7602 105.769V106.732H34.25V107.444H32.7602V110.551H32.145L27.79 107.492V106.732H32.1011V105.769H32.7602ZM32.1011 107.444H30.0005C29.8394 107.444 29.6943 107.442 29.5654 107.439C29.4336 107.436 29.312 107.432 29.2007 107.426C29.0864 107.42 28.978 107.416 28.8755 107.413C28.7729 107.407 28.6719 107.403 28.5723 107.4V107.435C28.6895 107.491 28.814 107.555 28.9458 107.628C29.0747 107.699 29.1904 107.77 29.293 107.844L32.1011 109.826V107.444Z" fill="white"/>
<path d="M59.75 148.752V152.962H59.1392L57.3945 151.244C57.0723 150.925 56.7852 150.657 56.5332 150.44C56.2812 150.22 56.0337 150.053 55.7905 149.939C55.5444 149.825 55.2749 149.768 54.9819 149.768C54.6186 149.768 54.3418 149.876 54.1514 150.093C53.958 150.307 53.8613 150.589 53.8613 150.941C53.8613 151.248 53.9141 151.521 54.0195 151.758C54.125 151.996 54.2744 152.239 54.4678 152.488L53.9756 152.879C53.832 152.709 53.7046 152.524 53.5933 152.325C53.4819 152.123 53.394 151.908 53.3296 151.679C53.2651 151.448 53.2329 151.202 53.2329 150.941C53.2329 150.545 53.3018 150.204 53.4395 149.917C53.5771 149.63 53.7734 149.409 54.0283 149.253C54.2832 149.095 54.5864 149.016 54.938 149.016C55.2778 149.016 55.5942 149.083 55.8872 149.218C56.1772 149.353 56.4658 149.542 56.7529 149.785C57.0371 150.028 57.3389 150.312 57.6582 150.638L59.0513 152.035H59.082V148.752H59.75ZM54.8237 143.839C55.1108 143.839 55.3599 143.895 55.5708 144.006C55.7817 144.118 55.9546 144.273 56.0894 144.472C56.2212 144.671 56.3135 144.906 56.3662 145.175H56.4014C56.4658 144.665 56.6299 144.283 56.8936 144.028C57.1572 143.77 57.5029 143.642 57.9307 143.642C58.3027 143.642 58.6323 143.729 58.9194 143.905C59.2065 144.078 59.4321 144.345 59.5962 144.705C59.7573 145.062 59.8379 145.521 59.8379 146.081C59.8379 146.42 59.8101 146.735 59.7544 147.025C59.7017 147.312 59.6123 147.588 59.4863 147.852H58.8008C58.9326 147.585 59.0366 147.295 59.1128 146.981C59.186 146.668 59.2227 146.365 59.2227 146.072C59.2227 145.486 59.1069 145.062 58.8755 144.802C58.6411 144.541 58.3218 144.411 57.9175 144.411C57.6392 144.411 57.415 144.484 57.2451 144.63C57.0723 144.774 56.9463 144.982 56.8672 145.254C56.7852 145.524 56.7441 145.849 56.7441 146.23V146.872H56.1201V146.226C56.1201 145.877 56.0688 145.581 55.9663 145.338C55.8638 145.095 55.7202 144.91 55.5356 144.784C55.3481 144.655 55.1269 144.591 54.8721 144.591C54.5469 144.591 54.2964 144.699 54.1206 144.916C53.9419 145.133 53.8525 145.427 53.8525 145.799C53.8525 146.028 53.876 146.236 53.9228 146.423C53.9697 146.611 54.0342 146.787 54.1162 146.951C54.1982 147.115 54.2935 147.279 54.4019 147.443L53.9009 147.812C53.7192 147.578 53.5625 147.292 53.4307 146.955C53.2988 146.618 53.2329 146.236 53.2329 145.808C53.2329 145.152 53.3823 144.66 53.6811 144.331C53.98 144.003 54.3608 143.839 54.8237 143.839ZM53.3252 139.902L59.75 142.292V143.013L53.3252 140.618V139.902ZM56.5288 135.112C57.0503 135.112 57.5161 135.151 57.9263 135.23C58.3364 135.31 58.6836 135.434 58.9678 135.604C59.2519 135.774 59.4687 135.994 59.6182 136.263C59.7646 136.533 59.8379 136.856 59.8379 137.234C59.8379 137.712 59.7075 138.107 59.4468 138.421C59.186 138.731 58.8096 138.964 58.3174 139.12C57.8223 139.272 57.2261 139.348 56.5288 139.348C55.8433 139.348 55.2544 139.279 54.7622 139.142C54.2671 139.001 53.8877 138.775 53.624 138.465C53.3574 138.154 53.2241 137.744 53.2241 137.234C53.2241 136.751 53.356 136.352 53.6196 136.039C53.8804 135.726 54.2583 135.493 54.7534 135.34C55.2456 135.188 55.8374 135.112 56.5288 135.112ZM56.5288 138.614C57.1265 138.614 57.6245 138.569 58.0229 138.478C58.4214 138.387 58.7202 138.241 58.9194 138.039C59.1157 137.833 59.2139 137.565 59.2139 137.234C59.2139 136.903 59.1157 136.637 58.9194 136.435C58.7231 136.229 58.4258 136.081 58.0273 135.991C57.6289 135.897 57.1294 135.85 56.5288 135.85C55.9399 135.85 55.4478 135.895 55.0522 135.986C54.6538 136.077 54.355 136.224 54.1558 136.426C53.9536 136.628 53.8525 136.897 53.8525 137.234C53.8525 137.571 53.9536 137.841 54.1558 138.043C54.355 138.245 54.6538 138.392 55.0522 138.482C55.4478 138.57 55.9399 138.614 56.5288 138.614ZM55.8213 132.176C55.8213 131.74 55.896 131.36 56.0454 131.038C56.1919 130.716 56.4058 130.467 56.687 130.291C56.9683 130.112 57.3096 130.023 57.7109 130.023C58.1504 130.023 58.5298 130.118 58.8491 130.309C59.1655 130.499 59.4102 130.773 59.583 131.13C59.7529 131.488 59.8379 131.915 59.8379 132.414C59.8379 132.748 59.8086 133.058 59.75 133.345C59.6914 133.632 59.6035 133.874 59.4863 134.07H58.792C58.9209 133.856 59.0234 133.597 59.0996 133.292C59.1758 132.988 59.2139 132.692 59.2139 132.405C59.2139 132.08 59.1626 131.795 59.0601 131.552C58.9546 131.306 58.7964 131.116 58.5854 130.981C58.3716 130.843 58.1035 130.774 57.7812 130.774C57.3535 130.774 57.0239 130.906 56.7925 131.17C56.5581 131.431 56.4409 131.844 56.4409 132.409C56.4409 132.591 56.4556 132.79 56.4849 133.007C56.5142 133.224 56.5464 133.402 56.5815 133.543L56.3398 133.912L53.3252 133.666L53.3252 130.471H53.9932L53.9932 133.042L55.9311 133.205C55.9077 133.093 55.8843 132.95 55.8608 132.774C55.8345 132.598 55.8213 132.399 55.8213 132.176ZM53.3252 126.296L59.75 128.687V129.408L53.3252 127.013V126.296ZM59.75 121.541V125.751H59.1392L57.3945 124.033C57.0723 123.714 56.7852 123.446 56.5332 123.229C56.2812 123.009 56.0337 122.842 55.7905 122.728C55.5444 122.614 55.2749 122.557 54.9819 122.557C54.6186 122.557 54.3418 122.665 54.1514 122.882C53.958 123.096 53.8613 123.378 53.8613 123.73C53.8613 124.038 53.9141 124.31 54.0195 124.547C54.125 124.785 54.2744 125.028 54.4678 125.277L53.9756 125.668C53.832 125.498 53.7046 125.313 53.5933 125.114C53.4819 124.912 53.394 124.697 53.3296 124.468C53.2651 124.237 53.2329 123.991 53.2329 123.73C53.2329 123.334 53.3018 122.993 53.4395 122.706C53.5771 122.419 53.7734 122.198 54.0283 122.042C54.2832 121.884 54.5864 121.805 54.938 121.805C55.2778 121.805 55.5942 121.873 55.8872 122.007C56.1772 122.142 56.4658 122.331 56.7529 122.574C57.0371 122.817 57.3389 123.102 57.6582 123.427L59.0513 124.824H59.082V121.541H59.75ZM56.5288 116.356C57.0503 116.356 57.5161 116.395 57.9263 116.475C58.3364 116.554 58.6836 116.678 58.9678 116.848C59.2519 117.018 59.4687 117.238 59.6182 117.507C59.7646 117.777 59.8379 118.101 59.8379 118.478C59.8379 118.956 59.7075 119.352 59.4468 119.665C59.186 119.976 58.8096 120.208 58.3174 120.364C57.8223 120.516 57.2261 120.592 56.5288 120.592C55.8433 120.592 55.2544 120.523 54.7622 120.386C54.2671 120.245 53.8877 120.019 53.624 119.709C53.3574 119.398 53.2241 118.988 53.2241 118.478C53.2241 117.995 53.356 117.597 53.6196 117.283C53.8804 116.97 54.2583 116.737 54.7534 116.584C55.2456 116.432 55.8374 116.356 56.5288 116.356ZM56.5288 119.858C57.1265 119.858 57.6245 119.813 58.0229 119.722C58.4214 119.631 58.7202 119.485 58.9194 119.283C59.1157 119.078 59.2139 118.81 59.2139 118.478C59.2139 118.147 59.1157 117.881 58.9194 117.679C58.7231 117.474 58.4258 117.326 58.0273 117.235C57.6289 117.141 57.1294 117.094 56.5288 117.094C55.9399 117.094 55.4478 117.14 55.0522 117.23C54.6538 117.321 54.355 117.468 54.1558 117.67C53.9536 117.872 53.8525 118.142 53.8525 118.478C53.8525 118.815 53.9536 119.085 54.1558 119.287C54.355 119.489 54.6538 119.636 55.0522 119.727C55.4478 119.814 55.9399 119.858 56.5288 119.858ZM59.75 111.241V115.451H59.1392L57.3945 113.732C57.0723 113.413 56.7852 113.145 56.5332 112.928C56.2812 112.708 56.0337 112.541 55.7905 112.427C55.5444 112.313 55.2749 112.256 54.9819 112.256C54.6186 112.256 54.3418 112.364 54.1514 112.581C53.958 112.795 53.8613 113.078 53.8613 113.429C53.8613 113.737 53.9141 114.009 54.0195 114.247C54.125 114.484 54.2744 114.727 54.4678 114.976L53.9756 115.367C53.832 115.197 53.7046 115.013 53.5933 114.813C53.4819 114.611 53.394 114.396 53.3296 114.167C53.2651 113.936 53.2329 113.69 53.2329 113.429C53.2329 113.034 53.3018 112.692 53.4395 112.405C53.5771 112.118 53.7734 111.897 54.0283 111.742C54.2832 111.583 54.5864 111.504 54.938 111.504C55.2778 111.504 55.5942 111.572 55.8872 111.707C56.1772 111.841 56.4658 112.03 56.7529 112.273C57.0371 112.517 57.3389 112.801 57.6582 113.126L59.0513 114.523H59.082V111.241H59.75ZM58.2602 105.769V106.732H59.75V107.444H58.2602V110.551H57.645L53.29 107.492V106.732H57.6011V105.769H58.2602ZM57.6011 107.444H55.5005C55.3394 107.444 55.1943 107.442 55.0654 107.439C54.9336 107.436 54.812 107.432 54.7007 107.426C54.5864 107.42 54.478 107.416 54.3755 107.413C54.2729 107.407 54.1719 107.403 54.0723 107.4V107.435C54.1895 107.491 54.314 107.555 54.4458 107.628C54.5747 107.699 54.6904 107.77 54.793 107.844L57.6011 109.826V107.444Z" fill="white"/>
<path d="M85.25 148.846V153.056H84.6392L82.8945 151.338C82.5723 151.018 82.2852 150.75 82.0332 150.534C81.7812 150.314 81.5337 150.147 81.2905 150.033C81.0444 149.918 80.7749 149.861 80.4819 149.861C80.1186 149.861 79.8418 149.97 79.6514 150.186C79.458 150.4 79.3613 150.683 79.3613 151.035C79.3613 151.342 79.4141 151.615 79.5195 151.852C79.625 152.089 79.7744 152.332 79.9678 152.581L79.4756 152.973C79.332 152.803 79.2046 152.618 79.0933 152.419C78.9819 152.217 78.894 152.001 78.8296 151.773C78.7651 151.541 78.7329 151.295 78.7329 151.035C78.7329 150.639 78.8018 150.298 78.9395 150.011C79.0771 149.724 79.2734 149.502 79.5283 149.347C79.7832 149.189 80.0864 149.11 80.438 149.11C80.7778 149.11 81.0942 149.177 81.3872 149.312C81.6772 149.447 81.9658 149.636 82.2529 149.879C82.5371 150.122 82.8389 150.406 83.1582 150.731L84.5513 152.129H84.582V148.846H85.25ZM83.7602 143.375V144.337H85.25V145.049H83.7602V148.156H83.145L78.79 145.098V144.337H83.1011V143.375H83.7602ZM83.1011 145.049H81.0005C80.8394 145.049 80.6943 145.048 80.5654 145.045C80.4336 145.042 80.312 145.038 80.2007 145.032C80.0864 145.026 79.978 145.021 79.8755 145.018C79.7729 145.013 79.6719 145.008 79.5723 145.005V145.04C79.6895 145.096 79.814 145.161 79.9458 145.234C80.0747 145.304 80.1904 145.376 80.293 145.449L83.1011 147.431V145.049ZM78.8252 139.996L85.25 142.386V143.107L78.8252 140.712V139.996ZM82.0288 135.206C82.5503 135.206 83.0161 135.245 83.4263 135.324C83.8364 135.403 84.1836 135.528 84.4678 135.698C84.7519 135.868 84.9687 136.087 85.1182 136.357C85.2646 136.626 85.3379 136.95 85.3379 137.328C85.3379 137.806 85.2075 138.201 84.9468 138.515C84.686 138.825 84.3096 139.058 83.8174 139.213C83.3223 139.366 82.7261 139.442 82.0288 139.442C81.3433 139.442 80.7544 139.373 80.2622 139.235C79.7671 139.095 79.3877 138.869 79.124 138.559C78.8574 138.248 78.7241 137.838 78.7241 137.328C78.7241 136.845 78.856 136.446 79.1196 136.133C79.3804 135.819 79.7583 135.586 80.2534 135.434C80.7456 135.282 81.3374 135.206 82.0288 135.206ZM82.0288 138.708C82.6265 138.708 83.1245 138.663 83.5229 138.572C83.9214 138.481 84.2202 138.334 84.4194 138.132C84.6157 137.927 84.7139 137.659 84.7139 137.328C84.7139 136.997 84.6157 136.73 84.4194 136.528C84.2231 136.323 83.9258 136.175 83.5273 136.084C83.1289 135.991 82.6294 135.944 82.0288 135.944C81.4399 135.944 80.9478 135.989 80.5522 136.08C80.1538 136.171 79.855 136.317 79.6558 136.519C79.4536 136.722 79.3525 136.991 79.3525 137.328C79.3525 137.665 79.4536 137.935 79.6558 138.137C79.855 138.339 80.1538 138.485 80.5522 138.576C80.9478 138.664 81.4399 138.708 82.0288 138.708ZM81.3213 132.27C81.3213 131.833 81.396 131.454 81.5454 131.132C81.6919 130.81 81.9058 130.56 82.187 130.385C82.4683 130.206 82.8096 130.117 83.2109 130.117C83.6504 130.117 84.0298 130.212 84.3491 130.402C84.6655 130.593 84.9102 130.867 85.083 131.224C85.2529 131.581 85.3379 132.009 85.3379 132.507C85.3379 132.841 85.3086 133.152 85.25 133.439C85.1914 133.726 85.1035 133.968 84.9863 134.164H84.292C84.4209 133.95 84.5234 133.691 84.5996 133.386C84.6758 133.081 84.7139 132.786 84.7139 132.498C84.7139 132.173 84.6626 131.889 84.5601 131.646C84.4546 131.4 84.2964 131.209 84.0854 131.075C83.8716 130.937 83.6035 130.868 83.2812 130.868C82.8535 130.868 82.5239 131 82.2925 131.264C82.0581 131.524 81.9409 131.937 81.9409 132.503C81.9409 132.685 81.9556 132.884 81.9849 133.101C82.0142 133.317 82.0464 133.496 82.0815 133.637L81.8398 134.006L78.8252 133.76V130.565H79.4932V133.136L81.4311 133.298C81.4077 133.187 81.3843 133.043 81.3608 132.868C81.3345 132.692 81.3213 132.493 81.3213 132.27ZM78.8252 126.39L85.25 128.781V129.501L78.8252 127.106V126.39ZM85.25 121.635V125.845H84.6392L82.8945 124.127C82.5723 123.808 82.2852 123.54 82.0332 123.323C81.7812 123.103 81.5337 122.936 81.2905 122.822C81.0444 122.707 80.7749 122.65 80.4819 122.65C80.1186 122.65 79.8418 122.759 79.6514 122.976C79.458 123.189 79.3613 123.472 79.3613 123.824C79.3613 124.131 79.4141 124.404 79.5195 124.641C79.625 124.878 79.7744 125.122 79.9678 125.371L79.4756 125.762C79.332 125.592 79.2046 125.407 79.0933 125.208C78.9819 125.006 78.894 124.79 78.8296 124.562C78.7651 124.331 78.7329 124.084 78.7329 123.824C78.7329 123.428 78.8018 123.087 78.9395 122.8C79.0771 122.513 79.2734 122.291 79.5283 122.136C79.7832 121.978 80.0864 121.899 80.438 121.899C80.7778 121.899 81.0942 121.966 81.3872 122.101C81.6772 122.236 81.9658 122.425 82.2529 122.668C82.5371 122.911 82.8389 123.195 83.1582 123.52L84.5513 124.918H84.582V121.635H85.25ZM82.0288 116.45C82.5503 116.45 83.0161 116.489 83.4263 116.568C83.8364 116.647 84.1836 116.772 84.4678 116.942C84.7519 117.112 84.9687 117.332 85.1182 117.601C85.2646 117.871 85.3379 118.194 85.3379 118.572C85.3379 119.05 85.2075 119.445 84.9468 119.759C84.686 120.069 84.3096 120.302 83.8174 120.457C83.3223 120.61 82.7261 120.686 82.0288 120.686C81.3433 120.686 80.7544 120.617 80.2622 120.479C79.7671 120.339 79.3877 120.113 79.124 119.803C78.8574 119.492 78.7241 119.082 78.7241 118.572C78.7241 118.089 78.856 117.69 79.1196 117.377C79.3804 117.063 79.7583 116.831 80.2534 116.678C80.7456 116.526 81.3374 116.45 82.0288 116.45ZM82.0288 119.952C82.6265 119.952 83.1245 119.907 83.5229 119.816C83.9214 119.725 84.2202 119.579 84.4194 119.376C84.6157 119.171 84.7139 118.903 84.7139 118.572C84.7139 118.241 84.6157 117.975 84.4194 117.772C84.2231 117.567 83.9258 117.419 83.5273 117.329C83.1289 117.235 82.6294 117.188 82.0288 117.188C81.4399 117.188 80.9478 117.233 80.5522 117.324C80.1538 117.415 79.855 117.561 79.6558 117.764C79.4536 117.966 79.3525 118.235 79.3525 118.572C79.3525 118.909 79.4536 119.179 79.6558 119.381C79.855 119.583 80.1538 119.729 80.5522 119.82C80.9478 119.908 81.4399 119.952 82.0288 119.952ZM85.25 111.334V115.544H84.6392L82.8945 113.826C82.5723 113.507 82.2852 113.239 82.0332 113.022C81.7812 112.802 81.5337 112.635 81.2905 112.521C81.0444 112.407 80.7749 112.35 80.4819 112.35C80.1186 112.35 79.8418 112.458 79.6514 112.675C79.458 112.889 79.3613 113.171 79.3613 113.523C79.3613 113.831 79.4141 114.103 79.5195 114.34C79.625 114.578 79.7744 114.821 79.9678 115.07L79.4756 115.461C79.332 115.291 79.2046 115.106 79.0933 114.907C78.9819 114.705 78.894 114.49 78.8296 114.261C78.7651 114.03 78.7329 113.784 78.7329 113.523C78.7329 113.127 78.8018 112.786 78.9395 112.499C79.0771 112.212 79.2734 111.991 79.5283 111.835C79.7832 111.677 80.0864 111.598 80.438 111.598C80.7778 111.598 81.0942 111.665 81.3872 111.8C81.6772 111.935 81.9658 112.124 82.2529 112.367C82.5371 112.61 82.8389 112.894 83.1582 113.22L84.5513 114.617H84.582V111.334H85.25ZM83.7602 105.863V106.826H85.25V107.538H83.7602L83.7602 110.644H83.145L78.79 107.586V106.826H83.1011V105.863H83.7602ZM83.1011 107.538H81.0005C80.8394 107.538 80.6943 107.536 80.5654 107.533C80.4336 107.53 80.312 107.526 80.2007 107.52C80.0864 107.514 79.978 107.51 79.8755 107.507C79.7729 107.501 79.6719 107.497 79.5723 107.494V107.529C79.6895 107.584 79.814 107.649 79.9458 107.722C80.0747 107.792 80.1904 107.864 80.293 107.937L83.1011 109.919L83.1011 107.538Z" fill="white"/>
<path d="M110.75 148.846V153.056H110.139L108.395 151.338C108.072 151.018 107.785 150.75 107.533 150.534C107.281 150.314 107.034 150.147 106.791 150.033C106.544 149.918 106.275 149.861 105.982 149.861C105.619 149.861 105.342 149.97 105.151 150.186C104.958 150.4 104.861 150.683 104.861 151.035C104.861 151.342 104.914 151.615 105.02 151.852C105.125 152.089 105.274 152.332 105.468 152.581L104.976 152.973C104.832 152.803 104.705 152.618 104.593 152.419C104.482 152.217 104.394 152.001 104.33 151.773C104.265 151.541 104.233 151.295 104.233 151.035C104.233 150.639 104.302 150.298 104.439 150.011C104.577 149.724 104.773 149.502 105.028 149.347C105.283 149.189 105.586 149.11 105.938 149.11C106.278 149.11 106.594 149.177 106.887 149.312C107.177 149.447 107.466 149.636 107.753 149.879C108.037 150.122 108.339 150.406 108.658 150.731L110.051 152.129H110.082V148.846H110.75ZM106.821 145.875C106.821 145.439 106.896 145.06 107.045 144.737C107.192 144.415 107.406 144.166 107.687 143.99C107.968 143.811 108.31 143.722 108.711 143.722C109.15 143.722 109.53 143.817 109.849 144.008C110.166 144.198 110.41 144.472 110.583 144.83C110.753 145.187 110.838 145.615 110.838 146.113C110.838 146.447 110.809 146.757 110.75 147.044C110.691 147.331 110.604 147.573 110.486 147.769H109.792C109.921 147.556 110.023 147.296 110.1 146.992C110.176 146.687 110.214 146.391 110.214 146.104C110.214 145.779 110.163 145.495 110.06 145.251C109.955 145.005 109.796 144.815 109.585 144.68C109.372 144.542 109.104 144.474 108.781 144.474C108.354 144.474 108.024 144.605 107.792 144.869C107.558 145.13 107.441 145.543 107.441 146.108C107.441 146.29 107.456 146.489 107.485 146.706C107.514 146.923 107.546 147.102 107.582 147.242L107.34 147.611L104.325 147.365V144.17H104.993V146.741L106.931 146.904C106.908 146.792 106.884 146.649 106.861 146.473C106.834 146.297 106.821 146.098 106.821 145.875ZM104.325 139.996L110.75 142.386V143.107L104.325 140.712V139.996ZM107.529 135.206C108.05 135.206 108.516 135.245 108.926 135.324C109.336 135.403 109.684 135.528 109.968 135.698C110.252 135.868 110.469 136.087 110.618 136.357C110.765 136.626 110.838 136.95 110.838 137.328C110.838 137.806 110.708 138.201 110.447 138.515C110.186 138.825 109.81 139.058 109.317 139.213C108.822 139.366 108.226 139.442 107.529 139.442C106.843 139.442 106.254 139.373 105.762 139.235C105.267 139.095 104.888 138.869 104.624 138.559C104.357 138.248 104.224 137.838 104.224 137.328C104.224 136.845 104.356 136.446 104.62 136.133C104.88 135.819 105.258 135.586 105.753 135.434C106.246 135.282 106.837 135.206 107.529 135.206ZM107.529 138.708C108.126 138.708 108.625 138.663 109.023 138.572C109.421 138.481 109.72 138.334 109.919 138.132C110.116 137.927 110.214 137.659 110.214 137.328C110.214 136.997 110.116 136.73 109.919 136.528C109.723 136.323 109.426 136.175 109.027 136.084C108.629 135.991 108.129 135.944 107.529 135.944C106.94 135.944 106.448 135.989 106.052 136.08C105.654 136.171 105.355 136.317 105.156 136.519C104.954 136.722 104.853 136.991 104.853 137.328C104.853 137.665 104.954 137.935 105.156 138.137C105.355 138.339 105.654 138.485 106.052 138.576C106.448 138.664 106.94 138.708 107.529 138.708ZM106.821 132.27C106.821 131.833 106.896 131.454 107.045 131.132C107.192 130.81 107.406 130.56 107.687 130.385C107.968 130.206 108.31 130.117 108.711 130.117C109.15 130.117 109.53 130.212 109.849 130.402C110.166 130.593 110.41 130.867 110.583 131.224C110.753 131.581 110.838 132.009 110.838 132.507C110.838 132.841 110.809 133.152 110.75 133.439C110.691 133.726 110.604 133.968 110.486 134.164H109.792C109.921 133.95 110.023 133.691 110.1 133.386C110.176 133.081 110.214 132.786 110.214 132.498C110.214 132.173 110.163 131.889 110.06 131.646C109.955 131.4 109.796 131.209 109.585 131.075C109.372 130.937 109.104 130.868 108.781 130.868C108.354 130.868 108.024 131 107.792 131.264C107.558 131.524 107.441 131.937 107.441 132.503C107.441 132.685 107.456 132.884 107.485 133.101C107.514 133.317 107.546 133.496 107.582 133.637L107.34 134.006L104.325 133.76V130.565H104.993V133.136L106.931 133.298C106.908 133.187 106.884 133.043 106.861 132.868C106.834 132.692 106.821 132.493 106.821 132.27ZM104.325 126.39L110.75 128.781V129.501L104.325 127.106V126.39ZM110.75 121.635V125.845H110.139L108.395 124.127C108.072 123.808 107.785 123.54 107.533 123.323C107.281 123.103 107.034 122.936 106.791 122.822C106.544 122.707 106.275 122.65 105.982 122.65C105.619 122.65 105.342 122.759 105.151 122.976C104.958 123.189 104.861 123.472 104.861 123.824C104.861 124.131 104.914 124.404 105.02 124.641C105.125 124.878 105.274 125.122 105.468 125.371L104.976 125.762C104.832 125.592 104.705 125.407 104.593 125.208C104.482 125.006 104.394 124.79 104.33 124.562C104.265 124.331 104.233 124.084 104.233 123.824C104.233 123.428 104.302 123.087 104.439 122.8C104.577 122.513 104.773 122.291 105.028 122.136C105.283 121.978 105.586 121.899 105.938 121.899C106.278 121.899 106.594 121.966 106.887 122.101C107.177 122.236 107.466 122.425 107.753 122.668C108.037 122.911 108.339 123.195 108.658 123.52L110.051 124.918H110.082V121.635H110.75ZM107.529 116.45C108.05 116.45 108.516 116.489 108.926 116.568C109.336 116.647 109.684 116.772 109.968 116.942C110.252 117.112 110.469 117.332 110.618 117.601C110.765 117.871 110.838 118.194 110.838 118.572C110.838 119.05 110.708 119.445 110.447 119.759C110.186 120.069 109.81 120.302 109.317 120.457C108.822 120.61 108.226 120.686 107.529 120.686C106.843 120.686 106.254 120.617 105.762 120.479C105.267 120.339 104.888 120.113 104.624 119.803C104.357 119.492 104.224 119.082 104.224 118.572C104.224 118.089 104.356 117.69 104.62 117.377C104.88 117.063 105.258 116.831 105.753 116.678C106.246 116.526 106.837 116.45 107.529 116.45ZM107.529 119.952C108.126 119.952 108.625 119.907 109.023 119.816C109.421 119.725 109.72 119.579 109.919 119.376C110.116 119.171 110.214 118.903 110.214 118.572C110.214 118.241 110.116 117.975 109.919 117.772C109.723 117.567 109.426 117.419 109.027 117.329C108.629 117.235 108.129 117.188 107.529 117.188C106.94 117.188 106.448 117.233 106.052 117.324C105.654 117.415 105.355 117.561 105.156 117.764C104.954 117.966 104.853 118.235 104.853 118.572C104.853 118.909 104.954 119.179 105.156 119.381C105.355 119.583 105.654 119.729 106.052 119.82C106.448 119.908 106.94 119.952 107.529 119.952ZM110.75 111.334V115.544H110.139L108.395 113.826C108.072 113.507 107.785 113.239 107.533 113.022C107.281 112.802 107.034 112.635 106.791 112.521C106.544 112.407 106.275 112.35 105.982 112.35C105.619 112.35 105.342 112.458 105.151 112.675C104.958 112.889 104.861 113.171 104.861 113.523C104.861 113.831 104.914 114.103 105.02 114.34C105.125 114.578 105.274 114.821 105.468 115.07L104.976 115.461C104.832 115.291 104.705 115.106 104.593 114.907C104.482 114.705 104.394 114.49 104.33 114.261C104.265 114.03 104.233 113.784 104.233 113.523C104.233 113.127 104.302 112.786 104.439 112.499C104.577 112.212 104.773 111.991 105.028 111.835C105.283 111.677 105.586 111.598 105.938 111.598C106.278 111.598 106.594 111.665 106.887 111.8C107.177 111.935 107.466 112.124 107.753 112.367C108.037 112.61 108.339 112.894 108.658 113.22L110.051 114.617H110.082V111.334H110.75ZM109.26 105.863V106.826H110.75V107.538H109.26L109.26 110.644H108.645L104.29 107.586V106.826H108.601V105.863H109.26ZM108.601 107.538H106.5C106.339 107.538 106.194 107.536 106.065 107.533C105.934 107.53 105.812 107.526 105.701 107.52C105.586 107.514 105.478 107.51 105.375 107.507C105.273 107.501 105.172 107.497 105.072 107.494V107.529C105.189 107.584 105.314 107.649 105.446 107.722C105.575 107.792 105.69 107.864 105.793 107.937L108.601 109.919L108.601 107.538Z" fill="white"/>
<path d="M136.25 148.846V153.056H135.639L133.895 151.338C133.572 151.018 133.285 150.75 133.033 150.534C132.781 150.314 132.534 150.147 132.291 150.033C132.044 149.918 131.775 149.861 131.482 149.861C131.119 149.861 130.842 149.97 130.651 150.186C130.458 150.4 130.361 150.683 130.361 151.035C130.361 151.342 130.414 151.615 130.52 151.852C130.625 152.089 130.774 152.332 130.968 152.581L130.476 152.973C130.332 152.803 130.205 152.618 130.093 152.419C129.982 152.217 129.894 152.001 129.83 151.773C129.765 151.541 129.733 151.295 129.733 151.035C129.733 150.639 129.802 150.298 129.939 150.011C130.077 149.724 130.273 149.502 130.528 149.347C130.783 149.189 131.086 149.11 131.438 149.11C131.778 149.11 132.094 149.177 132.387 149.312C132.677 149.447 132.966 149.636 133.253 149.879C133.537 150.122 133.839 150.406 134.158 150.731L135.551 152.129H135.582V148.846H136.25ZM133.503 147.84C133.117 147.84 132.739 147.813 132.37 147.761C132 147.705 131.658 147.613 131.341 147.484C131.022 147.355 130.742 147.179 130.502 146.956C130.262 146.734 130.074 146.457 129.939 146.126C129.802 145.792 129.733 145.392 129.733 144.926C129.733 144.794 129.74 144.652 129.755 144.5C129.767 144.348 129.787 144.222 129.816 144.122H130.445C130.407 144.23 130.379 144.355 130.361 144.496C130.344 144.633 130.335 144.772 130.335 144.913C130.335 145.458 130.454 145.887 130.691 146.201C130.928 146.511 131.25 146.735 131.658 146.873C132.062 147.011 132.518 147.09 133.024 147.11V147.062C132.878 146.971 132.746 146.855 132.629 146.715C132.509 146.574 132.414 146.404 132.343 146.205C132.273 146.003 132.238 145.768 132.238 145.502C132.238 145.127 132.314 144.8 132.466 144.522C132.619 144.241 132.84 144.024 133.13 143.872C133.42 143.716 133.771 143.639 134.185 143.639C134.627 143.639 135.009 143.721 135.332 143.885C135.654 144.049 135.903 144.283 136.079 144.588C136.251 144.89 136.338 145.25 136.338 145.669C136.338 145.982 136.278 146.271 136.158 146.535C136.038 146.798 135.859 147.028 135.622 147.225C135.384 147.418 135.09 147.569 134.738 147.677C134.384 147.786 133.972 147.84 133.503 147.84ZM135.723 145.678C135.723 145.279 135.595 144.96 135.34 144.72C135.085 144.479 134.7 144.359 134.185 144.359C133.763 144.359 133.429 144.466 133.183 144.68C132.937 144.894 132.813 145.216 132.813 145.647C132.813 145.94 132.875 146.195 132.998 146.412C133.118 146.628 133.271 146.797 133.455 146.917C133.64 147.037 133.827 147.097 134.018 147.097C134.211 147.097 134.407 147.069 134.606 147.014C134.806 146.955 134.99 146.867 135.16 146.75C135.33 146.633 135.466 146.485 135.569 146.306C135.671 146.127 135.723 145.918 135.723 145.678ZM129.825 139.996L136.25 142.386V143.107L129.825 140.712V139.996ZM133.029 135.206C133.55 135.206 134.016 135.245 134.426 135.324C134.836 135.403 135.184 135.528 135.468 135.698C135.752 135.868 135.969 136.087 136.118 136.357C136.265 136.626 136.338 136.95 136.338 137.328C136.338 137.806 136.208 138.201 135.947 138.515C135.686 138.825 135.31 139.058 134.817 139.213C134.322 139.366 133.726 139.442 133.029 139.442C132.343 139.442 131.754 139.373 131.262 139.235C130.767 139.095 130.388 138.869 130.124 138.559C129.857 138.248 129.724 137.838 129.724 137.328C129.724 136.845 129.856 136.446 130.12 136.133C130.38 135.819 130.758 135.586 131.253 135.434C131.746 135.282 132.337 135.206 133.029 135.206ZM133.029 138.708C133.626 138.708 134.125 138.663 134.523 138.572C134.921 138.481 135.22 138.334 135.419 138.132C135.616 137.927 135.714 137.659 135.714 137.328C135.714 136.997 135.616 136.73 135.419 136.528C135.223 136.323 134.926 136.175 134.527 136.084C134.129 135.991 133.629 135.944 133.029 135.944C132.44 135.944 131.948 135.989 131.552 136.08C131.154 136.171 130.855 136.317 130.656 136.519C130.454 136.722 130.353 136.991 130.353 137.328C130.353 137.665 130.454 137.935 130.656 138.137C130.855 138.339 131.154 138.485 131.552 138.576C131.948 138.664 132.44 138.708 133.029 138.708ZM132.321 132.27C132.321 131.833 132.396 131.454 132.545 131.132C132.692 130.81 132.906 130.56 133.187 130.385C133.468 130.206 133.81 130.117 134.211 130.117C134.65 130.117 135.03 130.212 135.349 130.402C135.666 130.593 135.91 130.867 136.083 131.224C136.253 131.581 136.338 132.009 136.338 132.507C136.338 132.841 136.309 133.152 136.25 133.439C136.191 133.726 136.104 133.968 135.986 134.164H135.292C135.421 133.95 135.523 133.691 135.6 133.386C135.676 133.081 135.714 132.786 135.714 132.498C135.714 132.173 135.663 131.889 135.56 131.646C135.455 131.4 135.296 131.209 135.085 131.075C134.872 130.937 134.604 130.868 134.281 130.868C133.854 130.868 133.524 131 133.292 131.264C133.058 131.524 132.941 131.937 132.941 132.503C132.941 132.685 132.956 132.884 132.985 133.101C133.014 133.317 133.046 133.496 133.082 133.637L132.84 134.006L129.825 133.76V130.565H130.493V133.136L132.431 133.298C132.408 133.187 132.384 133.043 132.361 132.868C132.334 132.692 132.321 132.493 132.321 132.27ZM129.825 126.39L136.25 128.781V129.501L129.825 127.106V126.39ZM136.25 121.635V125.845H135.639L133.895 124.127C133.572 123.808 133.285 123.54 133.033 123.323C132.781 123.103 132.534 122.936 132.291 122.822C132.044 122.707 131.775 122.65 131.482 122.65C131.119 122.65 130.842 122.759 130.651 122.976C130.458 123.189 130.361 123.472 130.361 123.824C130.361 124.131 130.414 124.404 130.52 124.641C130.625 124.878 130.774 125.122 130.968 125.371L130.476 125.762C130.332 125.592 130.205 125.407 130.093 125.208C129.982 125.006 129.894 124.79 129.83 124.562C129.765 124.331 129.733 124.084 129.733 123.824C129.733 123.428 129.802 123.087 129.939 122.8C130.077 122.513 130.273 122.291 130.528 122.136C130.783 121.978 131.086 121.899 131.438 121.899C131.778 121.899 132.094 121.966 132.387 122.101C132.677 122.236 132.966 122.425 133.253 122.668C133.537 122.911 133.839 123.195 134.158 123.52L135.551 124.918H135.582V121.635H136.25ZM133.029 116.45C133.55 116.45 134.016 116.489 134.426 116.568C134.836 116.647 135.184 116.772 135.468 116.942C135.752 117.112 135.969 117.332 136.118 117.601C136.265 117.871 136.338 118.194 136.338 118.572C136.338 119.05 136.208 119.445 135.947 119.759C135.686 120.069 135.31 120.302 134.817 120.457C134.322 120.61 133.726 120.686 133.029 120.686C132.343 120.686 131.754 120.617 131.262 120.479C130.767 120.339 130.388 120.113 130.124 119.803C129.857 119.492 129.724 119.082 129.724 118.572C129.724 118.089 129.856 117.69 130.12 117.377C130.38 117.063 130.758 116.831 131.253 116.678C131.746 116.526 132.337 116.45 133.029 116.45ZM133.029 119.952C133.626 119.952 134.125 119.907 134.523 119.816C134.921 119.725 135.22 119.579 135.419 119.376C135.616 119.171 135.714 118.903 135.714 118.572C135.714 118.241 135.616 117.975 135.419 117.772C135.223 117.567 134.926 117.419 134.527 117.329C134.129 117.235 133.629 117.188 133.029 117.188C132.44 117.188 131.948 117.233 131.552 117.324C131.154 117.415 130.855 117.561 130.656 117.764C130.454 117.966 130.353 118.235 130.353 118.572C130.353 118.909 130.454 119.179 130.656 119.381C130.855 119.583 131.154 119.729 131.552 119.82C131.948 119.908 132.44 119.952 133.029 119.952ZM136.25 111.334V115.544H135.639L133.895 113.826C133.572 113.507 133.285 113.239 133.033 113.022C132.781 112.802 132.534 112.635 132.291 112.521C132.044 112.407 131.775 112.35 131.482 112.35C131.119 112.35 130.842 112.458 130.651 112.675C130.458 112.889 130.361 113.171 130.361 113.523C130.361 113.831 130.414 114.103 130.52 114.34C130.625 114.578 130.774 114.821 130.968 115.07L130.476 115.461C130.332 115.291 130.205 115.106 130.093 114.907C129.982 114.705 129.894 114.49 129.83 114.261C129.765 114.03 129.733 113.784 129.733 113.523C129.733 113.127 129.802 112.786 129.939 112.499C130.077 112.212 130.273 111.991 130.528 111.835C130.783 111.677 131.086 111.598 131.438 111.598C131.778 111.598 132.094 111.665 132.387 111.8C132.677 111.935 132.966 112.124 133.253 112.367C133.537 112.61 133.839 112.894 134.158 113.22L135.551 114.617H135.582V111.334H136.25ZM134.76 105.863V106.826H136.25V107.538H134.76V110.644H134.145L129.79 107.586V106.826H134.101V105.863H134.76ZM134.101 107.538H132C131.839 107.538 131.694 107.536 131.565 107.533C131.434 107.53 131.312 107.526 131.201 107.52C131.086 107.514 130.978 107.51 130.875 107.507C130.773 107.501 130.672 107.497 130.572 107.494V107.529C130.689 107.584 130.814 107.649 130.946 107.722C131.075 107.792 131.19 107.864 131.293 107.937L134.101 109.919V107.538Z" fill="white"/>
<path d="M161.75 148.846V153.056H161.139L159.395 151.338C159.072 151.018 158.785 150.75 158.533 150.534C158.281 150.314 158.034 150.147 157.791 150.033C157.544 149.918 157.275 149.861 156.982 149.861C156.619 149.861 156.342 149.97 156.151 150.186C155.958 150.4 155.861 150.683 155.861 151.035C155.861 151.342 155.914 151.615 156.02 151.852C156.125 152.089 156.274 152.332 156.468 152.581L155.976 152.973C155.832 152.803 155.705 152.618 155.593 152.419C155.482 152.217 155.394 152.001 155.33 151.773C155.265 151.541 155.233 151.295 155.233 151.035C155.233 150.639 155.302 150.298 155.439 150.011C155.577 149.724 155.773 149.502 156.028 149.347C156.283 149.189 156.586 149.11 156.938 149.11C157.278 149.11 157.594 149.177 157.887 149.312C158.177 149.447 158.466 149.636 158.753 149.879C159.037 150.122 159.339 150.406 159.658 150.731L161.051 152.129H161.082V148.846H161.75ZM161.75 147.075L155.993 144.438V147.941H155.325V143.656H155.888L161.75 146.275V147.075ZM155.325 139.996L161.75 142.386V143.107L155.325 140.712V139.996ZM158.529 135.206C159.05 135.206 159.516 135.245 159.926 135.324C160.336 135.403 160.684 135.528 160.968 135.698C161.252 135.868 161.469 136.087 161.618 136.357C161.765 136.626 161.838 136.95 161.838 137.328C161.838 137.806 161.708 138.201 161.447 138.515C161.186 138.825 160.81 139.058 160.317 139.213C159.822 139.366 159.226 139.442 158.529 139.442C157.843 139.442 157.254 139.373 156.762 139.235C156.267 139.095 155.888 138.869 155.624 138.559C155.357 138.248 155.224 137.838 155.224 137.328C155.224 136.845 155.356 136.446 155.62 136.133C155.88 135.819 156.258 135.586 156.753 135.434C157.246 135.282 157.837 135.206 158.529 135.206ZM158.529 138.708C159.126 138.708 159.625 138.663 160.023 138.572C160.421 138.481 160.72 138.334 160.919 138.132C161.116 137.927 161.214 137.659 161.214 137.328C161.214 136.997 161.116 136.73 160.919 136.528C160.723 136.323 160.426 136.175 160.027 136.084C159.629 135.991 159.129 135.944 158.529 135.944C157.94 135.944 157.448 135.989 157.052 136.08C156.654 136.171 156.355 136.317 156.156 136.519C155.954 136.722 155.853 136.991 155.853 137.328C155.853 137.665 155.954 137.935 156.156 138.137C156.355 138.339 156.654 138.485 157.052 138.576C157.448 138.664 157.94 138.708 158.529 138.708ZM157.821 132.27C157.821 131.833 157.896 131.454 158.045 131.132C158.192 130.81 158.406 130.56 158.687 130.385C158.968 130.206 159.31 130.117 159.711 130.117C160.15 130.117 160.53 130.212 160.849 130.402C161.166 130.593 161.41 130.867 161.583 131.224C161.753 131.581 161.838 132.009 161.838 132.507C161.838 132.841 161.809 133.152 161.75 133.439C161.691 133.726 161.604 133.968 161.486 134.164H160.792C160.921 133.95 161.023 133.691 161.1 133.386C161.176 133.081 161.214 132.786 161.214 132.498C161.214 132.173 161.163 131.889 161.06 131.646C160.955 131.4 160.796 131.209 160.585 131.075C160.372 130.937 160.104 130.868 159.781 130.868C159.354 130.868 159.024 131 158.792 131.264C158.558 131.524 158.441 131.937 158.441 132.503C158.441 132.685 158.456 132.884 158.485 133.101C158.514 133.317 158.546 133.496 158.582 133.637L158.34 134.006L155.325 133.76V130.565H155.993V133.136L157.931 133.298C157.908 133.187 157.884 133.043 157.861 132.868C157.834 132.692 157.821 132.493 157.821 132.27ZM155.325 126.39L161.75 128.781V129.501L155.325 127.106V126.39ZM161.75 121.635V125.845H161.139L159.395 124.127C159.072 123.808 158.785 123.54 158.533 123.323C158.281 123.103 158.034 122.936 157.791 122.822C157.544 122.707 157.275 122.65 156.982 122.65C156.619 122.65 156.342 122.759 156.151 122.976C155.958 123.189 155.861 123.472 155.861 123.824C155.861 124.131 155.914 124.404 156.02 124.641C156.125 124.878 156.274 125.122 156.468 125.371L155.976 125.762C155.832 125.592 155.705 125.407 155.593 125.208C155.482 125.006 155.394 124.79 155.33 124.562C155.265 124.331 155.233 124.084 155.233 123.824C155.233 123.428 155.302 123.087 155.439 122.8C155.577 122.513 155.773 122.291 156.028 122.136C156.283 121.978 156.586 121.899 156.938 121.899C157.278 121.899 157.594 121.966 157.887 122.101C158.177 122.236 158.466 122.425 158.753 122.668C159.037 122.911 159.339 123.195 159.658 123.52L161.051 124.918H161.082V121.635H161.75ZM158.529 116.45C159.05 116.45 159.516 116.489 159.926 116.568C160.336 116.647 160.684 116.772 160.968 116.942C161.252 117.112 161.469 117.332 161.618 117.601C161.765 117.871 161.838 118.194 161.838 118.572C161.838 119.05 161.708 119.445 161.447 119.759C161.186 120.069 160.81 120.302 160.317 120.457C159.822 120.61 159.226 120.686 158.529 120.686C157.843 120.686 157.254 120.617 156.762 120.479C156.267 120.339 155.888 120.113 155.624 119.803C155.357 119.492 155.224 119.082 155.224 118.572C155.224 118.089 155.356 117.69 155.62 117.377C155.88 117.063 156.258 116.831 156.753 116.678C157.246 116.526 157.837 116.45 158.529 116.45ZM158.529 119.952C159.126 119.952 159.625 119.907 160.023 119.816C160.421 119.725 160.72 119.579 160.919 119.376C161.116 119.171 161.214 118.903 161.214 118.572C161.214 118.241 161.116 117.975 160.919 117.772C160.723 117.567 160.426 117.419 160.027 117.329C159.629 117.235 159.129 117.188 158.529 117.188C157.94 117.188 157.448 117.233 157.052 117.324C156.654 117.415 156.355 117.561 156.156 117.764C155.954 117.966 155.853 118.235 155.853 118.572C155.853 118.909 155.954 119.179 156.156 119.381C156.355 119.583 156.654 119.729 157.052 119.82C157.448 119.908 157.94 119.952 158.529 119.952ZM161.75 111.334V115.544H161.139L159.395 113.826C159.072 113.507 158.785 113.239 158.533 113.022C158.281 112.802 158.034 112.635 157.791 112.521C157.544 112.407 157.275 112.35 156.982 112.35C156.619 112.35 156.342 112.458 156.151 112.675C155.958 112.889 155.861 113.171 155.861 113.523C155.861 113.831 155.914 114.103 156.02 114.34C156.125 114.578 156.274 114.821 156.468 115.07L155.976 115.461C155.832 115.291 155.705 115.106 155.593 114.907C155.482 114.705 155.394 114.49 155.33 114.261C155.265 114.03 155.233 113.784 155.233 113.523C155.233 113.127 155.302 112.786 155.439 112.499C155.577 112.212 155.773 111.991 156.028 111.835C156.283 111.677 156.586 111.598 156.938 111.598C157.278 111.598 157.594 111.665 157.887 111.8C158.177 111.935 158.466 112.124 158.753 112.367C159.037 112.61 159.339 112.894 159.658 113.22L161.051 114.617H161.082V111.334H161.75ZM160.26 105.863V106.826H161.75V107.538H160.26V110.644H159.645L155.29 107.586V106.826H159.601V105.863H160.26ZM159.601 107.538H157.5C157.339 107.538 157.194 107.536 157.065 107.533C156.934 107.53 156.812 107.526 156.701 107.52C156.586 107.514 156.478 107.51 156.375 107.507C156.273 107.501 156.172 107.497 156.072 107.494V107.529C156.189 107.584 156.314 107.649 156.446 107.722C156.575 107.792 156.69 107.864 156.793 107.937L159.601 109.919V107.538Z" fill="white"/>
<path d="M187.25 148.846V153.056H186.639L184.895 151.338C184.572 151.018 184.285 150.75 184.033 150.534C183.781 150.314 183.534 150.147 183.291 150.033C183.044 149.918 182.775 149.861 182.482 149.861C182.119 149.861 181.842 149.97 181.651 150.186C181.458 150.4 181.361 150.683 181.361 151.035C181.361 151.342 181.414 151.615 181.52 151.852C181.625 152.089 181.774 152.332 181.968 152.581L181.476 152.973C181.332 152.803 181.205 152.618 181.093 152.419C180.982 152.217 180.894 152.001 180.83 151.773C180.765 151.541 180.733 151.295 180.733 151.035C180.733 150.639 180.802 150.298 180.939 150.011C181.077 149.724 181.273 149.502 181.528 149.347C181.783 149.189 182.086 149.11 182.438 149.11C182.778 149.11 183.094 149.177 183.387 149.312C183.677 149.447 183.966 149.636 184.253 149.879C184.537 150.122 184.839 150.406 185.158 150.731L186.551 152.129H186.582V148.846H187.25ZM180.733 145.783C180.733 145.411 180.792 145.081 180.909 144.794C181.026 144.507 181.199 144.283 181.427 144.122C181.653 143.958 181.931 143.876 182.262 143.876C182.523 143.876 182.751 143.933 182.948 144.047C183.141 144.159 183.311 144.31 183.458 144.5C183.601 144.69 183.73 144.901 183.844 145.133C183.97 144.857 184.112 144.61 184.271 144.39C184.429 144.167 184.615 143.992 184.829 143.863C185.042 143.734 185.296 143.669 185.589 143.669C185.949 143.669 186.261 143.757 186.525 143.933C186.786 144.106 186.986 144.349 187.127 144.663C187.268 144.976 187.338 145.344 187.338 145.766C187.338 146.22 187.271 146.606 187.136 146.926C186.998 147.242 186.802 147.484 186.547 147.651C186.289 147.815 185.98 147.897 185.62 147.897C185.324 147.897 185.067 147.834 184.851 147.708C184.631 147.582 184.442 147.415 184.284 147.207C184.125 146.999 183.992 146.772 183.884 146.526C183.767 146.74 183.633 146.936 183.484 147.115C183.334 147.29 183.16 147.431 182.961 147.537C182.759 147.639 182.524 147.69 182.258 147.69C181.933 147.69 181.657 147.608 181.432 147.444C181.203 147.277 181.03 147.05 180.913 146.763C180.793 146.473 180.733 146.146 180.733 145.783ZM185.624 147.181C185.952 147.181 186.223 147.065 186.437 146.833C186.648 146.602 186.753 146.252 186.753 145.783C186.753 145.338 186.648 144.994 186.437 144.75C186.223 144.507 185.943 144.386 185.598 144.386C185.384 144.386 185.196 144.441 185.035 144.553C184.871 144.664 184.725 144.822 184.596 145.027C184.467 145.232 184.35 145.474 184.244 145.752L184.187 145.911C184.298 146.18 184.423 146.41 184.561 146.601C184.695 146.788 184.849 146.932 185.022 147.031C185.195 147.131 185.396 147.181 185.624 147.181ZM181.331 145.792C181.331 146.138 181.414 146.42 181.581 146.64C181.745 146.86 181.982 146.97 182.293 146.97C182.516 146.97 182.705 146.917 182.86 146.811C183.012 146.703 183.144 146.557 183.255 146.372C183.364 146.187 183.465 145.981 183.559 145.752C183.465 145.53 183.362 145.332 183.251 145.159C183.137 144.986 183.002 144.85 182.847 144.75C182.691 144.651 182.505 144.601 182.289 144.601C181.978 144.601 181.741 144.711 181.577 144.931C181.413 145.147 181.331 145.435 181.331 145.792ZM180.825 139.996L187.25 142.386V143.107L180.825 140.712V139.996ZM184.029 135.206C184.55 135.206 185.016 135.245 185.426 135.324C185.836 135.403 186.184 135.528 186.468 135.698C186.752 135.868 186.969 136.087 187.118 136.357C187.265 136.626 187.338 136.95 187.338 137.328C187.338 137.806 187.208 138.201 186.947 138.515C186.686 138.825 186.31 139.058 185.817 139.213C185.322 139.366 184.726 139.442 184.029 139.442C183.343 139.442 182.754 139.373 182.262 139.235C181.767 139.095 181.388 138.869 181.124 138.559C180.857 138.248 180.724 137.838 180.724 137.328C180.724 136.845 180.856 136.446 181.12 136.133C181.38 135.819 181.758 135.586 182.253 135.434C182.746 135.282 183.337 135.206 184.029 135.206ZM184.029 138.708C184.626 138.708 185.125 138.663 185.523 138.572C185.921 138.481 186.22 138.334 186.419 138.132C186.616 137.927 186.714 137.659 186.714 137.328C186.714 136.997 186.616 136.73 186.419 136.528C186.223 136.323 185.926 136.175 185.527 136.084C185.129 135.991 184.629 135.944 184.029 135.944C183.44 135.944 182.948 135.989 182.552 136.08C182.154 136.171 181.855 136.317 181.656 136.519C181.454 136.722 181.353 136.991 181.353 137.328C181.353 137.665 181.454 137.935 181.656 138.137C181.855 138.339 182.154 138.485 182.552 138.576C182.948 138.664 183.44 138.708 184.029 138.708ZM183.321 132.27C183.321 131.833 183.396 131.454 183.545 131.132C183.692 130.81 183.906 130.56 184.187 130.385C184.468 130.206 184.81 130.117 185.211 130.117C185.65 130.117 186.03 130.212 186.349 130.402C186.666 130.593 186.91 130.867 187.083 131.224C187.253 131.581 187.338 132.009 187.338 132.507C187.338 132.841 187.309 133.152 187.25 133.439C187.191 133.726 187.104 133.968 186.986 134.164H186.292C186.421 133.95 186.523 133.691 186.6 133.386C186.676 133.081 186.714 132.786 186.714 132.498C186.714 132.173 186.663 131.889 186.56 131.646C186.455 131.4 186.296 131.209 186.085 131.075C185.872 130.937 185.604 130.868 185.281 130.868C184.854 130.868 184.524 131 184.292 131.264C184.058 131.524 183.941 131.937 183.941 132.503C183.941 132.685 183.956 132.884 183.985 133.101C184.014 133.317 184.046 133.496 184.082 133.637L183.84 134.006L180.825 133.76V130.565H181.493V133.136L183.431 133.298C183.408 133.187 183.384 133.043 183.361 132.868C183.334 132.692 183.321 132.493 183.321 132.27ZM180.825 126.39L187.25 128.781V129.501L180.825 127.106V126.39ZM187.25 121.635V125.845H186.639L184.895 124.127C184.572 123.808 184.285 123.54 184.033 123.323C183.781 123.103 183.534 122.936 183.291 122.822C183.044 122.707 182.775 122.65 182.482 122.65C182.119 122.65 181.842 122.759 181.651 122.976C181.458 123.189 181.361 123.472 181.361 123.824C181.361 124.131 181.414 124.404 181.52 124.641C181.625 124.878 181.774 125.122 181.968 125.371L181.476 125.762C181.332 125.592 181.205 125.407 181.093 125.208C180.982 125.006 180.894 124.79 180.83 124.562C180.765 124.331 180.733 124.084 180.733 123.824C180.733 123.428 180.802 123.087 180.939 122.8C181.077 122.513 181.273 122.291 181.528 122.136C181.783 121.978 182.086 121.899 182.438 121.899C182.778 121.899 183.094 121.966 183.387 122.101C183.677 122.236 183.966 122.425 184.253 122.668C184.537 122.911 184.839 123.195 185.158 123.52L186.551 124.918H186.582V121.635H187.25ZM184.029 116.45C184.55 116.45 185.016 116.489 185.426 116.568C185.836 116.647 186.184 116.772 186.468 116.942C186.752 117.112 186.969 117.332 187.118 117.601C187.265 117.871 187.338 118.194 187.338 118.572C187.338 119.05 187.208 119.445 186.947 119.759C186.686 120.069 186.31 120.302 185.817 120.457C185.322 120.61 184.726 120.686 184.029 120.686C183.343 120.686 182.754 120.617 182.262 120.479C181.767 120.339 181.388 120.113 181.124 119.803C180.857 119.492 180.724 119.082 180.724 118.572C180.724 118.089 180.856 117.69 181.12 117.377C181.38 117.063 181.758 116.831 182.253 116.678C182.746 116.526 183.337 116.45 184.029 116.45ZM184.029 119.952C184.626 119.952 185.125 119.907 185.523 119.816C185.921 119.725 186.22 119.579 186.419 119.376C186.616 119.171 186.714 118.903 186.714 118.572C186.714 118.241 186.616 117.975 186.419 117.772C186.223 117.567 185.926 117.419 185.527 117.329C185.129 117.235 184.629 117.188 184.029 117.188C183.44 117.188 182.948 117.233 182.552 117.324C182.154 117.415 181.855 117.561 181.656 117.764C181.454 117.966 181.353 118.235 181.353 118.572C181.353 118.909 181.454 119.179 181.656 119.381C181.855 119.583 182.154 119.729 182.552 119.82C182.948 119.908 183.44 119.952 184.029 119.952ZM187.25 111.334V115.544H186.639L184.895 113.826C184.572 113.507 184.285 113.239 184.033 113.022C183.781 112.802 183.534 112.635 183.291 112.521C183.044 112.407 182.775 112.35 182.482 112.35C182.119 112.35 181.842 112.458 181.651 112.675C181.458 112.889 181.361 113.171 181.361 113.523C181.361 113.831 181.414 114.103 181.52 114.34C181.625 114.578 181.774 114.821 181.968 115.07L181.476 115.461C181.332 115.291 181.205 115.106 181.093 114.907C180.982 114.705 180.894 114.49 180.83 114.261C180.765 114.03 180.733 113.784 180.733 113.523C180.733 113.127 180.802 112.786 180.939 112.499C181.077 112.212 181.273 111.991 181.528 111.835C181.783 111.677 182.086 111.598 182.438 111.598C182.778 111.598 183.094 111.665 183.387 111.8C183.677 111.935 183.966 112.124 184.253 112.367C184.537 112.61 184.839 112.894 185.158 113.22L186.551 114.617H186.582V111.334H187.25ZM185.76 105.863V106.826H187.25V107.538H185.76V110.644H185.145L180.79 107.586V106.826H185.101V105.863H185.76ZM185.101 107.538H183C182.839 107.538 182.694 107.536 182.565 107.533C182.434 107.53 182.312 107.526 182.201 107.52C182.086 107.514 181.978 107.51 181.875 107.507C181.773 107.501 181.672 107.497 181.572 107.494V107.529C181.689 107.584 181.814 107.649 181.946 107.722C182.075 107.792 182.19 107.864 182.293 107.937L185.101 109.919V107.538Z" fill="white"/>
<path d="M212.75 148.846V153.056H212.139L210.395 151.338C210.072 151.018 209.785 150.75 209.533 150.534C209.281 150.314 209.034 150.147 208.791 150.033C208.544 149.918 208.275 149.861 207.982 149.861C207.619 149.861 207.342 149.97 207.151 150.186C206.958 150.4 206.861 150.683 206.861 151.035C206.861 151.342 206.914 151.615 207.02 151.852C207.125 152.089 207.274 152.332 207.468 152.581L206.976 152.973C206.832 152.803 206.705 152.618 206.593 152.419C206.482 152.217 206.394 152.001 206.33 151.773C206.265 151.541 206.233 151.295 206.233 151.035C206.233 150.639 206.302 150.298 206.439 150.011C206.577 149.724 206.773 149.502 207.028 149.347C207.283 149.189 207.586 149.11 207.938 149.11C208.278 149.11 208.594 149.177 208.887 149.312C209.177 149.447 209.466 149.636 209.753 149.879C210.037 150.122 210.339 150.406 210.658 150.731L212.051 152.129H212.082V148.846H212.75ZM209.063 143.687C209.453 143.687 209.832 143.715 210.201 143.77C210.57 143.823 210.915 143.915 211.234 144.047C211.553 144.176 211.833 144.352 212.073 144.575C212.313 144.797 212.502 145.077 212.64 145.414C212.775 145.748 212.842 146.148 212.842 146.614C212.842 146.74 212.833 146.883 212.816 147.044C212.801 147.206 212.779 147.337 212.75 147.44H212.117C212.155 147.331 212.186 147.204 212.209 147.058C212.23 146.911 212.24 146.768 212.24 146.627C212.24 146.079 212.123 145.648 211.889 145.335C211.651 145.021 211.331 144.796 210.926 144.658C210.519 144.52 210.062 144.443 209.555 144.425V144.478C209.696 144.566 209.826 144.682 209.946 144.825C210.063 144.966 210.159 145.137 210.232 145.339C210.302 145.541 210.337 145.777 210.337 146.047C210.337 146.419 210.261 146.744 210.109 147.022C209.957 147.298 209.735 147.513 209.445 147.668C209.155 147.821 208.805 147.897 208.395 147.897C207.953 147.897 207.57 147.813 207.248 147.646C206.923 147.477 206.672 147.239 206.497 146.935C206.321 146.63 206.233 146.271 206.233 145.858C206.233 145.541 206.293 145.251 206.413 144.988C206.533 144.724 206.713 144.496 206.954 144.302C207.191 144.106 207.485 143.955 207.837 143.85C208.188 143.741 208.597 143.687 209.063 143.687ZM206.853 145.858C206.853 146.248 206.98 146.564 207.235 146.807C207.49 147.047 207.874 147.167 208.386 147.167C208.811 147.167 209.146 147.063 209.393 146.855C209.639 146.647 209.762 146.327 209.762 145.893C209.762 145.594 209.702 145.336 209.582 145.12C209.461 144.9 209.309 144.731 209.125 144.614C208.94 144.494 208.751 144.434 208.558 144.434C208.364 144.434 208.168 144.463 207.969 144.522C207.77 144.578 207.586 144.664 207.419 144.781C207.25 144.898 207.113 145.046 207.011 145.225C206.905 145.404 206.853 145.615 206.853 145.858ZM206.325 139.996L212.75 142.386V143.107L206.325 140.712V139.996ZM209.529 135.206C210.05 135.206 210.516 135.245 210.926 135.324C211.336 135.403 211.684 135.528 211.968 135.698C212.252 135.868 212.469 136.087 212.618 136.357C212.765 136.626 212.838 136.95 212.838 137.328C212.838 137.806 212.708 138.201 212.447 138.515C212.186 138.825 211.81 139.058 211.317 139.213C210.822 139.366 210.226 139.442 209.529 139.442C208.843 139.442 208.254 139.373 207.762 139.235C207.267 139.095 206.888 138.869 206.624 138.559C206.357 138.248 206.224 137.838 206.224 137.328C206.224 136.845 206.356 136.446 206.62 136.133C206.88 135.819 207.258 135.586 207.753 135.434C208.246 135.282 208.837 135.206 209.529 135.206ZM209.529 138.708C210.126 138.708 210.625 138.663 211.023 138.572C211.421 138.481 211.72 138.334 211.919 138.132C212.116 137.927 212.214 137.659 212.214 137.328C212.214 136.997 212.116 136.73 211.919 136.528C211.723 136.323 211.426 136.175 211.027 136.084C210.629 135.991 210.129 135.944 209.529 135.944C208.94 135.944 208.448 135.989 208.052 136.08C207.654 136.171 207.355 136.317 207.156 136.519C206.954 136.722 206.853 136.991 206.853 137.328C206.853 137.665 206.954 137.935 207.156 138.137C207.355 138.339 207.654 138.485 208.052 138.576C208.448 138.664 208.94 138.708 209.529 138.708ZM208.821 132.27C208.821 131.833 208.896 131.454 209.045 131.132C209.192 130.81 209.406 130.56 209.687 130.385C209.968 130.206 210.31 130.117 210.711 130.117C211.15 130.117 211.53 130.212 211.849 130.402C212.166 130.593 212.41 130.867 212.583 131.224C212.753 131.581 212.838 132.009 212.838 132.507C212.838 132.841 212.809 133.152 212.75 133.439C212.691 133.726 212.604 133.968 212.486 134.164H211.792C211.921 133.95 212.023 133.691 212.1 133.386C212.176 133.081 212.214 132.786 212.214 132.498C212.214 132.173 212.163 131.889 212.06 131.646C211.955 131.4 211.796 131.209 211.585 131.075C211.372 130.937 211.104 130.868 210.781 130.868C210.354 130.868 210.024 131 209.792 131.264C209.558 131.524 209.441 131.937 209.441 132.503C209.441 132.685 209.456 132.884 209.485 133.101C209.514 133.317 209.546 133.496 209.582 133.637L209.34 134.006L206.325 133.76V130.565H206.993V133.136L208.931 133.298C208.908 133.187 208.884 133.043 208.861 132.868C208.834 132.692 208.821 132.493 208.821 132.27ZM206.325 126.39L212.75 128.781V129.501L206.325 127.106V126.39ZM212.75 121.635V125.845H212.139L210.395 124.127C210.072 123.808 209.785 123.54 209.533 123.323C209.281 123.103 209.034 122.936 208.791 122.822C208.544 122.707 208.275 122.65 207.982 122.65C207.619 122.65 207.342 122.759 207.151 122.976C206.958 123.189 206.861 123.472 206.861 123.824C206.861 124.131 206.914 124.404 207.02 124.641C207.125 124.878 207.274 125.122 207.468 125.371L206.976 125.762C206.832 125.592 206.705 125.407 206.593 125.208C206.482 125.006 206.394 124.79 206.33 124.562C206.265 124.331 206.233 124.084 206.233 123.824C206.233 123.428 206.302 123.087 206.439 122.8C206.577 122.513 206.773 122.291 207.028 122.136C207.283 121.978 207.586 121.899 207.938 121.899C208.278 121.899 208.594 121.966 208.887 122.101C209.177 122.236 209.466 122.425 209.753 122.668C210.037 122.911 210.339 123.195 210.658 123.52L212.051 124.918H212.082V121.635H212.75ZM209.529 116.45C210.05 116.45 210.516 116.489 210.926 116.568C211.336 116.647 211.684 116.772 211.968 116.942C212.252 117.112 212.469 117.332 212.618 117.601C212.765 117.871 212.838 118.194 212.838 118.572C212.838 119.05 212.708 119.445 212.447 119.759C212.186 120.069 211.81 120.302 211.317 120.457C210.822 120.61 210.226 120.686 209.529 120.686C208.843 120.686 208.254 120.617 207.762 120.479C207.267 120.339 206.888 120.113 206.624 119.803C206.357 119.492 206.224 119.082 206.224 118.572C206.224 118.089 206.356 117.69 206.62 117.377C206.88 117.063 207.258 116.831 207.753 116.678C208.246 116.526 208.837 116.45 209.529 116.45ZM209.529 119.952C210.126 119.952 210.625 119.907 211.023 119.816C211.421 119.725 211.72 119.579 211.919 119.376C212.116 119.171 212.214 118.903 212.214 118.572C212.214 118.241 212.116 117.975 211.919 117.772C211.723 117.567 211.426 117.419 211.027 117.329C210.629 117.235 210.129 117.188 209.529 117.188C208.94 117.188 208.448 117.233 208.052 117.324C207.654 117.415 207.355 117.561 207.156 117.764C206.954 117.966 206.853 118.235 206.853 118.572C206.853 118.909 206.954 119.179 207.156 119.381C207.355 119.583 207.654 119.729 208.052 119.82C208.448 119.908 208.94 119.952 209.529 119.952ZM212.75 111.334V115.544H212.139L210.395 113.826C210.072 113.507 209.785 113.239 209.533 113.022C209.281 112.802 209.034 112.635 208.791 112.521C208.544 112.407 208.275 112.35 207.982 112.35C207.619 112.35 207.342 112.458 207.151 112.675C206.958 112.889 206.861 113.171 206.861 113.523C206.861 113.831 206.914 114.103 207.02 114.34C207.125 114.578 207.274 114.821 207.468 115.07L206.976 115.461C206.832 115.291 206.705 115.106 206.593 114.907C206.482 114.705 206.394 114.49 206.33 114.261C206.265 114.03 206.233 113.784 206.233 113.523C206.233 113.127 206.302 112.786 206.439 112.499C206.577 112.212 206.773 111.991 207.028 111.835C207.283 111.677 207.586 111.598 207.938 111.598C208.278 111.598 208.594 111.665 208.887 111.8C209.177 111.935 209.466 112.124 209.753 112.367C210.037 112.61 210.339 112.894 210.658 113.22L212.051 114.617H212.082V111.334H212.75ZM211.26 105.863V106.826H212.75V107.538H211.26V110.644H210.645L206.29 107.586V106.826H210.601V105.863H211.26ZM210.601 107.538H208.5C208.339 107.538 208.194 107.536 208.065 107.533C207.934 107.53 207.812 107.526 207.701 107.52C207.586 107.514 207.478 107.51 207.375 107.507C207.273 107.501 207.172 107.497 207.072 107.494V107.529C207.189 107.584 207.314 107.649 207.446 107.722C207.575 107.792 207.69 107.864 207.793 107.937L210.601 109.919V107.538Z" fill="white"/>
<defs>
<linearGradient id="paint0_linear_1_642" x1="118.68" y1="-9.44186" x2="118.68" y2="98" gradientUnits="userSpaceOnUse">
<stop stop-color="#00F7F1"/>
<stop offset="1" stop-color="#00F7F1" stop-opacity="0"/>
</linearGradient>
<linearGradient id="paint1_linear_1_642" x1="118.68" y1="18.314" x2="118.68" y2="98" gradientUnits="userSpaceOnUse">
<stop stop-color="#FFED00"/>
<stop offset="1" stop-color="#FFED00" stop-opacity="0"/>
</linearGradient>
</defs>
</svg>
