<svg width="112" height="22" viewBox="0 0 112 22" fill="none" xmlns="http://www.w3.org/2000/svg">
<path d="M110.5 11C110.5 11.3923 110.304 11.8913 109.677 12.4986C109.048 13.1071 108.068 13.7419 106.714 14.3762C104.012 15.6422 100.039 16.8084 95.05 17.7973C85.0878 19.7717 71.281 21 56 21C40.719 21 26.9122 19.7717 16.95 17.7973C11.9607 16.8084 7.98752 15.6422 5.28578 14.3762C3.93225 13.7419 2.95156 13.1071 2.32329 12.4986C1.69627 11.8913 1.5 11.3923 1.5 11C1.5 10.6077 1.69627 10.1087 2.32329 9.50142C2.95156 8.89289 3.93225 8.25807 5.28578 7.62382C7.98752 6.3578 11.9607 5.19162 16.95 4.20274C26.9122 2.22826 40.719 1 56 1C71.281 1 85.0878 2.22826 95.05 4.20274C100.039 5.19162 104.012 6.3578 106.714 7.62382C108.068 8.25807 109.048 8.89289 109.677 9.50142C110.304 10.1087 110.5 10.6077 110.5 11Z" stroke="url(#paint0_linear_28_49)" stroke-width="2"/>
<defs>
<linearGradient id="paint0_linear_28_49" x1="111.5" y1="11" x2="0.5" y2="11" gradientUnits="userSpaceOnUse">
<stop stop-color="#00F7F1"/>
<stop offset="1" stop-color="#00F7F1" stop-opacity="0.1"/>
</linearGradient>
</defs>
</svg>
