<svg width="19" height="19" viewBox="0 0 19 19" fill="none" xmlns="http://www.w3.org/2000/svg">
<g clip-path="url(#clip0_1_441)">
<path d="M9.48986 2.37501C7.91622 2.3732 6.37493 2.82177 5.04802 3.66774C3.72111 4.51371 2.66401 5.72174 2.00157 7.14915C1.33912 8.57657 1.099 10.1637 1.30956 11.7232C1.52012 13.2827 2.17258 14.7494 3.18986 15.95L3.33986 16.125H15.6399L15.7899 15.95C16.8071 14.7494 17.4596 13.2827 17.6702 11.7232C17.8807 10.1637 17.6406 8.57657 16.9782 7.14915C16.3157 5.72174 15.2586 4.51371 13.9317 3.66774C12.6048 2.82177 11.0635 2.3732 9.48986 2.37501ZM13.7899 7.11501L10.8299 10.02C10.9812 10.3398 11.0145 10.7029 10.924 11.0449C10.8336 11.387 10.6251 11.6861 10.3355 11.8893C10.0458 12.0925 9.6937 12.1868 9.34127 12.1555C8.98883 12.1242 8.65881 11.9694 8.40951 11.7183C8.1602 11.4672 8.00768 11.1361 7.97888 10.7835C7.95009 10.4308 8.04688 10.0794 8.25214 9.79117C8.45741 9.50298 8.75794 9.29663 9.10063 9.20858C9.44332 9.12053 9.8061 9.15646 10.1249 9.31001L13.0799 6.40501L13.7899 7.11501ZM2.28986 10.2H3.98986V11.2H2.26986C2.26986 11.005 2.24486 10.815 2.24486 10.615C2.24486 10.415 2.25486 10.34 2.26486 10.2H2.28986ZM4.72986 5.20001L5.95986 6.43001L5.22486 7.12001L3.98986 5.89501C4.21152 5.64212 4.45043 5.40489 4.70486 5.18501L4.72986 5.20001ZM9.98986 5.14501H8.98986V3.39501H9.48986C9.67486 3.39501 9.83986 3.39501 9.98986 3.42001V5.14501ZM16.7349 10.62C16.7349 10.815 16.7349 11.015 16.7099 11.205H14.9499V10.205H16.7149C16.7249 10.34 16.7349 10.48 16.7349 10.62Z" fill="white"/>
</g>
<defs>
<clipPath id="clip0_1_441">
<rect width="18" height="18" fill="white" transform="translate(0.489868 0.25)"/>
</clipPath>
</defs>
</svg>
