<svg width="177" height="92" viewBox="0 0 177 92" fill="none" xmlns="http://www.w3.org/2000/svg">
<path d="M2.58929 34.1628L0.5 36.1743V90.75H176V56.1158V21.4816L173.911 16.3591C171.821 11.2366 167.643 0.991597 163.464 0.754247C159.286 0.516897 155.107 10.2872 150.929 15.1703C146.75 20.0535 142.571 20.0494 138.393 20.5367C134.214 21.0239 130.036 22.0025 125.857 25.0072C121.679 28.012 117.5 33.0429 113.321 32.2361C109.143 31.4293 104.964 24.7847 100.786 24.8359C96.6071 24.8871 92.4286 31.6341 88.25 31.4691C84.0714 31.3041 79.8929 24.2269 75.7143 19.4789C71.5357 14.7309 67.3571 12.3119 63.1786 15.9647C59 19.6175 54.8214 29.3421 50.6429 34.7848C46.4643 40.2276 42.2857 41.3886 38.1071 43.8723C33.9286 46.356 29.75 50.1625 25.5714 47.0884C21.3929 44.0144 17.2143 34.0598 13.0357 31.094C8.85714 28.1282 4.67857 32.1513 2.58929 34.1628Z" fill="url(#paint0_linear_10_588)" stroke="#00F7F1" stroke-width="0.75"/>
<defs>
<linearGradient id="paint0_linear_10_588" x1="88.4304" y1="-16.6919" x2="88.4304" y2="90.75" gradientUnits="userSpaceOnUse">
<stop stop-color="#00F7F1"/>
<stop offset="1" stop-color="#00F7F1" stop-opacity="0"/>
</linearGradient>
</defs>
</svg>
