<svg width="177" height="92" viewBox="0 0 177 92" fill="none" xmlns="http://www.w3.org/2000/svg">
<path d="M2.83929 34.4128L0.75 36.4243V91H176.25V56.3658V21.7316L174.161 16.6091C172.071 11.4866 167.893 1.2416 163.714 1.00425C159.536 0.766897 155.357 10.5372 151.179 15.4203C147 20.3035 142.821 20.2994 138.643 20.7867C134.464 21.2739 130.286 22.2525 126.107 25.2572C121.929 28.262 117.75 33.2929 113.571 32.4861C109.393 31.6793 105.214 25.0347 101.036 25.0859C96.8571 25.1371 92.6786 31.8841 88.5 31.7191C84.3214 31.5541 80.1429 24.4769 75.9643 19.7289C71.7857 14.9809 67.6071 12.5619 63.4286 16.2147C59.25 19.8675 55.0714 29.5921 50.8929 35.0348C46.7143 40.4776 42.5357 41.6386 38.3571 44.1223C34.1786 46.606 30 50.4125 25.8214 47.3384C21.6429 44.2644 17.4643 34.3098 13.2857 31.344C9.10714 28.3782 4.92857 32.4013 2.83929 34.4128Z" fill="url(#paint0_linear_10_583)" stroke="#00F7F1" stroke-width="0.75"/>
<path d="M2.83929 49.0312L0.75 50.5231V91H176.25V65.313V39.6259L174.161 35.8267C172.071 32.0276 167.893 24.4292 163.714 24.2531C159.536 24.0771 155.357 31.3234 151.179 34.9451C147 38.5667 142.821 38.5638 138.643 38.9251C134.464 39.2865 130.286 40.0122 126.107 42.2408C121.929 44.4693 117.75 48.2006 113.571 47.6022C109.393 47.0038 105.214 42.0757 101.036 42.1137C96.8571 42.1517 92.6786 47.1557 88.5 47.0333C84.3214 46.9109 80.1429 41.6621 75.9643 38.1406C71.7857 34.6191 67.6071 32.8251 63.4286 35.5342C59.25 38.2434 55.0714 45.4558 50.8929 49.4925C46.7143 53.5292 42.5357 54.3903 38.3571 56.2324C34.1786 58.0745 30 60.8976 25.8214 58.6177C21.6429 56.3377 17.4643 48.9547 13.2857 46.7551C9.10714 44.5555 4.92857 47.5393 2.83929 49.0312Z" fill="url(#paint1_linear_10_583)" stroke="#FFED00" stroke-width="0.75"/>
<defs>
<linearGradient id="paint0_linear_10_583" x1="88.6804" y1="-16.4419" x2="88.6804" y2="91" gradientUnits="userSpaceOnUse">
<stop stop-color="#00F7F1"/>
<stop offset="1" stop-color="#00F7F1" stop-opacity="0"/>
</linearGradient>
<linearGradient id="paint1_linear_10_583" x1="88.6804" y1="11.314" x2="88.6804" y2="91" gradientUnits="userSpaceOnUse">
<stop stop-color="#FFED00"/>
<stop offset="1" stop-color="#FFED00" stop-opacity="0"/>
</linearGradient>
</defs>
</svg>
