<svg width="37" height="41" viewBox="0 0 37 41" fill="none" xmlns="http://www.w3.org/2000/svg">
<path opacity="0.7" d="M36.4713 32.1927C36.4713 33.2185 36.0081 34.2155 35.1305 35.1446C34.2515 36.0751 32.9671 36.9252 31.3595 37.645C28.145 39.0844 23.6853 39.9815 18.7449 39.9815C13.8046 39.9815 9.3449 39.0844 6.13035 37.645C4.52277 36.9252 3.23833 36.0751 2.35938 35.1446C1.48176 34.2155 1.01858 33.2185 1.01858 32.1927C1.01858 31.1669 1.48176 30.1699 2.35938 29.2408C3.23833 28.3103 4.52277 27.4602 6.13035 26.7404C9.3449 25.301 13.8046 24.4038 18.7449 24.4038C23.6853 24.4038 28.145 25.301 31.3595 26.7404C32.9671 27.4602 34.2515 28.3103 35.1305 29.2408C36.0081 30.1699 36.4713 31.1669 36.4713 32.1927Z" stroke="#00F7F1" stroke-width="0.537162"/>
<g opacity="0.7">
<path d="M3.43582 0.5H33.5169V31.6554H3.43582V0.5Z" fill="url(#paint0_linear_1_385)"/>
<path d="M33.5169 31.6554C33.5169 34.9187 26.783 37.5642 18.4764 37.5642C10.1697 37.5642 3.43582 34.9187 3.43582 31.6554C3.43582 28.3921 10.1697 25.7466 18.4764 25.7466C26.783 25.7466 33.5169 28.3921 33.5169 31.6554Z" fill="url(#paint1_linear_1_385)"/>
</g>
<path opacity="0.7" d="M26.8024 29.5069C26.8024 29.8475 26.6193 30.2041 26.2174 30.5604C25.8158 30.9165 25.2194 31.2494 24.4594 31.5344C22.9413 32.1037 20.826 32.4613 18.4764 32.4613C16.1267 32.4613 14.0115 32.1037 12.4934 31.5344C11.7333 31.2494 11.1369 30.9165 10.7354 30.5604C10.3335 30.2041 10.1504 29.8475 10.1504 29.5069C10.1504 29.1663 10.3335 28.8096 10.7354 28.4533C11.1369 28.0973 11.7333 27.7644 12.4934 27.4794C14.0115 26.9101 16.1267 26.5525 18.4764 26.5525C20.826 26.5525 22.9413 26.9101 24.4594 27.4794C25.2194 27.7644 25.8158 28.0973 26.2174 28.4533C26.6193 28.8096 26.8024 29.1663 26.8024 29.5069Z" stroke="#00F7F1" stroke-width="0.537162"/>
<g clip-path="url(#clip0_1_385)">
<path d="M18.4764 27.5371V23.956M16.3277 17.5101V13.2128M20.625 17.5101V13.2128M22.7737 17.5101V21.0911C22.7737 21.851 22.4718 22.5796 21.9346 23.1169C21.3973 23.6542 20.6686 23.956 19.9088 23.956H17.0439C16.2841 23.956 15.5554 23.6542 15.0182 23.1169C14.4809 22.5796 14.1791 21.851 14.1791 21.0911V17.5101H22.7737Z" stroke="white" stroke-width="1.07432" stroke-linecap="round" stroke-linejoin="round"/>
</g>
<defs>
<linearGradient id="paint0_linear_1_385" x1="18.4764" y1="37.5642" x2="18.4764" y2="0.5" gradientUnits="userSpaceOnUse">
<stop stop-color="#00F7F1"/>
<stop offset="1" stop-color="#00F7F1" stop-opacity="0"/>
</linearGradient>
<linearGradient id="paint1_linear_1_385" x1="18.4764" y1="37.5642" x2="18.4764" y2="0.5" gradientUnits="userSpaceOnUse">
<stop stop-color="#00F7F1"/>
<stop offset="1" stop-color="#00F7F1" stop-opacity="0"/>
</linearGradient>
<clipPath id="clip0_1_385">
<rect width="17.1892" height="17.1892" fill="white" transform="translate(9.88177 11.7805)"/>
</clipPath>
</defs>
</svg>
