<svg width="84" height="22" viewBox="0 0 84 22" fill="none" xmlns="http://www.w3.org/2000/svg">
<path d="M82.625 13.5C82.625 13.7942 82.4778 14.1684 82.0075 14.6239C81.5363 15.0803 80.8008 15.5564 79.7857 16.0321C77.7594 16.9816 74.7795 17.8563 71.0375 18.5979C63.5659 20.0788 53.2108 21 41.75 21C30.2892 21 19.9341 20.0788 12.4625 18.5979C8.72049 17.8563 5.74064 16.9816 3.71434 16.0321C2.69919 15.5564 1.96367 15.0803 1.49247 14.6239C1.0222 14.1684 0.875 13.7942 0.875 13.5C0.875 13.2058 1.0222 12.8316 1.49247 12.3761C1.96367 11.9197 2.69919 11.4436 3.71434 10.9679C5.74064 10.0184 8.72049 9.14372 12.4625 8.40206C19.9341 6.92119 30.2892 6 41.75 6C53.2108 6 63.5659 6.92119 71.0375 8.40206C74.7795 9.14372 77.7594 10.0184 79.7857 10.9679C80.8008 11.4436 81.5363 11.9197 82.0075 12.3761C82.4778 12.8316 82.625 13.2058 82.625 13.5Z" stroke="url(#paint0_linear_1_572)" stroke-width="1.5"/>
<path d="M77.9323 6.38418C78.4044 6.75179 78.7403 7.13027 78.9286 7.51736L78.2541 7.84537C78.3271 7.99544 78.3558 8.1283 78.3558 8.25C78.3558 8.37169 78.3271 8.50456 78.2541 8.65463L78.9286 8.98264C78.7403 9.36973 78.4045 9.74821 77.9323 10.1158L77.4716 9.52405C77.1629 9.76437 76.7746 10.0093 76.3041 10.2555L76.6518 10.92C76.2385 11.1362 75.7766 11.3476 75.2686 11.5537L74.9866 10.8587C74.5617 11.031 74.1007 11.2006 73.6047 11.3669L73.8431 12.078C73.3858 12.2313 72.9018 12.3811 72.3925 12.5271L72.1859 11.8061C71.7266 11.9377 71.2454 12.0665 70.7431 12.1922L70.9252 12.9198C70.4482 13.0391 69.9532 13.1555 69.4413 13.2688L69.2793 12.5365C68.8042 12.6416 68.3138 12.7441 67.8086 12.8438L67.9539 13.5796C67.4694 13.6752 66.9721 13.7682 66.4623 13.8585L66.3315 13.12C65.8478 13.2057 65.3525 13.2889 64.8463 13.3696L64.9644 14.1103C64.4734 14.1886 63.9725 14.2644 63.4619 14.3378L63.3552 13.5954C62.8656 13.6658 62.3669 13.7339 61.8596 13.7996L61.956 14.5434C61.4609 14.6075 60.9579 14.6694 60.4472 14.7289L60.3604 13.984C59.8668 14.0415 59.3659 14.0969 58.858 14.15L58.936 14.8959C58.4381 14.948 57.9335 14.9979 57.4228 15.0456L57.353 14.2988C56.8565 14.3452 56.3539 14.3895 55.8456 14.4316L55.9075 15.179C55.4072 15.2204 54.9014 15.2598 54.3904 15.297L54.336 14.549C53.8383 14.5852 53.3358 14.6194 52.8284 14.6515L52.8758 15.4C52.375 15.4317 51.8697 15.4613 51.3602 15.4889L51.3196 14.74C50.8202 14.767 50.3166 14.792 49.809 14.815L49.8429 15.5642C49.3404 15.5869 48.8341 15.6076 48.3242 15.6263L48.2967 14.8768C47.7955 14.8952 47.2908 14.9115 46.7828 14.9259L46.804 15.6756C46.3 15.6898 45.7928 15.702 45.2826 15.7122L45.2676 14.9624C44.7665 14.9724 44.2625 14.9804 43.7557 14.9865L43.7647 15.7364C43.261 15.7424 42.7547 15.7465 42.2459 15.7485L42.243 14.9985C41.9903 14.9995 41.737 15 41.4832 15C41.2293 15 40.9761 14.9995 40.7234 14.9985L40.7205 15.7485C40.2117 15.7465 39.7054 15.7424 39.2017 15.7364L39.2107 14.9865C38.7039 14.9804 38.1999 14.9724 37.6988 14.9624L37.6838 15.7122C37.1736 15.702 36.6664 15.6898 36.1624 15.6756L36.1836 14.9259C35.6756 14.9115 35.1709 14.8952 34.6697 14.8768L34.6422 15.6263C34.1323 15.6076 33.626 15.5869 33.1235 15.5642L33.1573 14.815C32.6498 14.792 32.1462 14.767 31.6467 14.74L31.6062 15.4889C31.0966 15.4613 30.5913 15.4317 30.0906 15.4L30.1379 14.6515C29.6306 14.6194 29.128 14.5852 28.6304 14.549L28.576 15.297C28.065 15.2598 27.5592 15.2204 27.0589 15.179L27.1208 14.4316C26.6125 14.3895 26.1099 14.3452 25.6133 14.2988L25.5436 15.0456C25.0328 14.9979 24.5283 14.948 24.0303 14.8959L24.1083 14.15C23.6005 14.0969 23.0996 14.0415 22.606 13.984L22.5192 14.7289C22.0085 14.6694 21.5054 14.6075 21.0104 14.5434L21.1068 13.7996C20.5995 13.7339 20.1008 13.6658 19.6112 13.5954L19.5045 14.3378C18.9939 14.2644 18.4929 14.1886 18.002 14.1103L18.1201 13.3696C17.6138 13.2889 17.1186 13.2057 16.6349 13.12L16.5041 13.8585C15.9943 13.7682 15.4969 13.6752 15.0125 13.5796L15.1578 12.8438C14.6526 12.7441 14.1622 12.6416 13.6871 12.5365L13.5251 13.2688C13.0131 13.1555 12.5182 13.0391 12.0412 12.9198L12.2233 12.1922C11.7209 12.0665 11.2397 11.9377 10.7805 11.8061L10.5739 12.5271C10.0646 12.3811 9.58062 12.2313 9.12331 12.078L9.36169 11.3669C8.86572 11.2006 8.40466 11.031 7.97974 10.8587L7.69783 11.5537C7.18982 11.3476 6.72785 11.1362 6.31461 10.92L6.66226 10.2555C6.19175 10.0093 5.80347 9.76437 5.49482 9.52405L5.03405 10.1158C4.56193 9.74821 4.22607 9.36973 4.03781 8.98264L4.71228 8.65463C4.6393 8.50456 4.6106 8.3717 4.6106 8.25C4.6106 8.12831 4.6393 7.99544 4.71228 7.84537L4.03781 7.51736C4.22606 7.13027 4.56193 6.75179 5.03405 6.38418L5.49482 6.97595C5.80347 6.73563 6.19175 6.49066 6.66226 6.24452L6.31461 5.57996C6.72785 5.36377 7.18982 5.15238 7.69783 4.94632L7.97974 5.64132C8.40466 5.46896 8.86572 5.29937 9.36169 5.13311L9.12332 4.422C9.58063 4.26871 10.0646 4.11894 10.5739 3.97295L10.7805 4.69391C11.2397 4.56227 11.721 4.43349 12.2233 4.3078L12.0412 3.58023C12.5182 3.46087 13.0131 3.34448 13.5251 3.23121L13.6871 3.96351C14.1622 3.8584 14.6526 3.75592 15.1578 3.65621L15.0125 2.92041C15.4969 2.82479 15.9943 2.73178 16.5041 2.64149L16.6349 3.37999C17.1186 3.29432 17.6138 3.21107 18.1201 3.13035L18.002 2.38971C18.4929 2.31143 18.9939 2.23556 19.5045 2.16218L19.6112 2.90455C20.1008 2.83418 20.5995 2.7661 21.1068 2.70038L21.0104 1.95659C21.5054 1.89247 22.0085 1.83061 22.5192 1.77107L22.606 2.51603C23.0996 2.45849 23.6005 2.40313 24.1083 2.35002L24.0303 1.60409C24.5283 1.55202 25.0328 1.5021 25.5436 1.45441L25.6134 2.20116C26.1099 2.15479 26.6125 2.11053 27.1208 2.06843L27.0589 1.32099C27.5592 1.27956 28.065 1.24021 28.576 1.20301L28.6304 1.95103C29.128 1.9148 29.6306 1.88061 30.138 1.84851L30.0906 1.10001C30.5914 1.06833 31.0966 1.03869 31.6062 1.01112L31.6467 1.76003C32.1462 1.73301 32.6498 1.708 33.1574 1.68504L33.1235 0.935809C33.626 0.91308 34.1323 0.892357 34.6422 0.873684L34.6697 1.62318C35.1709 1.60483 35.6756 1.58846 36.1836 1.57413L36.1624 0.824424C36.6664 0.810202 37.1736 0.79797 37.6838 0.78777L37.6988 1.53762C38.1999 1.5276 38.7039 1.51955 39.2107 1.51351L39.2017 0.763563C39.7054 0.757558 40.2117 0.753528 40.7205 0.751511L40.7234 1.5015C40.9761 1.5005 41.2293 1.5 41.4832 1.5C41.737 1.5 41.9903 1.5005 42.2429 1.5015L42.2459 0.751511C42.7547 0.753528 43.261 0.757558 43.7647 0.763563L43.7557 1.51351C44.2625 1.51955 44.7665 1.5276 45.2676 1.53762L45.2826 0.78777C45.7928 0.79797 46.3 0.810202 46.804 0.824424L46.7828 1.57413C47.2908 1.58846 47.7955 1.60483 48.2967 1.62318L48.3242 0.873684C48.8341 0.892358 49.3404 0.913081 49.8429 0.935809L49.809 1.68504C50.3166 1.708 50.8202 1.73301 51.3197 1.76003L51.3602 1.01112C51.8698 1.03869 52.375 1.06833 52.8758 1.10001L52.8284 1.84852C53.3358 1.88061 53.8384 1.9148 54.336 1.95103L54.3904 1.20301C54.9014 1.24021 55.4072 1.27956 55.9075 1.32099L55.8456 2.06843C56.3539 2.11053 56.8565 2.15479 57.353 2.20116L57.4228 1.45441C57.9336 1.5021 58.4381 1.55202 58.9361 1.60409L58.858 2.35002C59.3659 2.40313 59.8668 2.45849 60.3604 2.51603L60.4472 1.77107C60.9579 1.83061 61.461 1.89247 61.956 1.95659L61.8596 2.70038C62.3669 2.7661 62.8656 2.83418 63.3552 2.90455L63.4619 2.16218C63.9725 2.23556 64.4735 2.31144 64.9644 2.38971L64.8463 3.13035C65.3526 3.21107 65.8478 3.29432 66.3315 3.38L66.4623 2.64149C66.9721 2.73178 67.4695 2.82479 67.9539 2.92041L67.8086 3.65621C68.3138 3.75592 68.8042 3.8584 69.2793 3.96351L69.4413 3.23122C69.9533 3.34448 70.4482 3.46088 70.9252 3.58024L70.7431 4.30781C71.2454 4.43349 71.7266 4.56228 72.1859 4.69391L72.3925 3.97295C72.9018 4.11894 73.3858 4.26871 73.8431 4.42201L73.6047 5.13312C74.1007 5.29937 74.5617 5.46896 74.9866 5.64132L75.2686 4.94632C75.7766 5.15238 76.2385 5.36377 76.6518 5.57996L76.3041 6.24452C76.7746 6.49066 77.1629 6.73563 77.4716 6.97595L77.9323 6.38418Z" stroke="url(#paint1_linear_1_572)" stroke-width="1.5" stroke-dasharray="1.5 1.5"/>
<defs>
<linearGradient id="paint0_linear_1_572" x1="83.375" y1="13.5" x2="0.125" y2="13.5" gradientUnits="userSpaceOnUse">
<stop stop-color="#00F7F1"/>
<stop offset="1" stop-color="#00F7F1" stop-opacity="0.1"/>
</linearGradient>
<linearGradient id="paint1_linear_1_572" x1="79.1058" y1="8.25" x2="3.8606" y2="8.25" gradientUnits="userSpaceOnUse">
<stop stop-color="#00F7F1" stop-opacity="0.4"/>
<stop offset="1" stop-color="#00F7F1"/>
</linearGradient>
</defs>
</svg>
