<svg width="118" height="22" viewBox="0 0 118 22" fill="none" xmlns="http://www.w3.org/2000/svg">
<path d="M116.75 13.25C116.75 13.4359 116.61 13.7963 115.886 14.2951C115.191 14.7737 114.119 15.2652 112.666 15.7498C109.769 16.7155 105.538 17.5968 100.261 18.341C89.7189 19.8277 75.1306 20.75 59 20.75C42.8694 20.75 28.2811 19.8277 17.739 18.341C12.4623 17.5968 8.23091 16.7155 5.33445 15.7498C3.88121 15.2652 2.80861 14.7737 2.11411 14.2951C1.39035 13.7963 1.25 13.4359 1.25 13.25C1.25 13.0641 1.39035 12.7037 2.11411 12.2049C2.80861 11.7263 3.88121 11.2348 5.33445 10.7502C8.23091 9.78448 12.4623 8.90317 17.739 8.15902C28.2811 6.67231 42.8694 5.75 59 5.75C75.1306 5.75 89.7189 6.67231 100.261 8.15902C105.538 8.90317 109.769 9.78448 112.666 10.7502C114.119 11.2348 115.191 11.7263 115.886 12.2049C116.61 12.7037 116.75 13.0641 116.75 13.25Z" stroke="url(#paint0_linear_1_552)" stroke-width="1.5"/>
<path d="M110.148 6.3073C110.67 6.62859 111.047 6.95778 111.268 7.29339L110.642 7.70599C110.731 7.84025 110.75 7.93482 110.75 8C110.75 8.06518 110.731 8.15975 110.642 8.29401L111.268 8.70661C111.047 9.04222 110.67 9.37141 110.148 9.6927L109.755 9.05381C109.419 9.26033 109.003 9.47076 108.506 9.68257L108.8 10.3727C108.372 10.5547 107.897 10.7336 107.375 10.9091L107.136 10.1983C106.704 10.3439 106.237 10.4879 105.736 10.6298L105.94 11.3514C105.48 11.482 104.993 11.6104 104.481 11.7366L104.302 11.0083C103.838 11.1224 103.354 11.2348 102.848 11.3453L103.008 12.078C102.532 12.182 102.039 12.2842 101.528 12.3846L101.383 11.6487C100.908 11.7421 100.417 11.834 99.9111 11.9243L100.043 12.6626C99.5594 12.7489 99.0629 12.8337 98.5537 12.9168L98.4328 12.1766C97.9498 12.2555 97.455 12.3329 96.9489 12.4088L97.0602 13.1505C96.5711 13.2239 96.0717 13.296 95.5623 13.3665L95.4594 12.6236C94.9702 12.6914 94.4716 12.7578 93.9639 12.8228L94.0593 13.5668C93.5686 13.6296 93.0696 13.6912 92.5625 13.7515L92.474 13.0067C91.9846 13.0649 91.4875 13.1218 90.983 13.1775L91.0652 13.923C90.5711 13.9775 90.0699 14.0308 89.5619 14.0829L89.4854 13.3368C88.9905 13.3876 88.489 13.4371 87.9812 13.4854L88.0523 14.2321C87.558 14.2791 87.0577 14.325 86.5518 14.3698L86.4857 13.6227C85.9916 13.6663 85.492 13.7089 84.987 13.7503L85.0483 14.4978C84.5497 14.5387 84.0461 14.5784 83.5374 14.617L83.4807 13.8692C82.985 13.9068 82.4846 13.9433 81.9796 13.9788L82.0321 14.7269C81.5347 14.7618 81.0329 14.7956 80.5268 14.8283L80.4784 14.0799C79.9794 14.1122 79.4763 14.1433 78.9691 14.1734L79.0135 14.9221C78.5157 14.9517 78.0141 14.9801 77.5087 15.0076L77.4681 14.2587C76.97 14.2857 76.4682 14.3117 75.9629 14.3366L75.9999 15.0857C75.4987 15.1104 74.9941 15.1341 74.4861 15.1567L74.4527 14.4075C73.9554 14.4296 73.455 14.4507 72.9514 14.4708L72.9813 15.2202C72.4799 15.2403 71.9755 15.2593 71.4682 15.2772L71.4417 14.5277C70.9427 14.5453 70.441 14.562 69.9365 14.5776L69.9597 15.3273C69.459 15.3428 68.9556 15.3573 68.4497 15.3708L68.4297 14.621C67.9288 14.6344 67.4254 14.6467 66.9195 14.6581L66.9363 15.4079C66.4361 15.4191 65.9336 15.4293 65.4288 15.4385L65.4152 14.6886C64.9134 14.6978 64.4094 14.7059 63.9033 14.713L63.9139 15.4629C63.4135 15.47 62.9111 15.4761 62.4067 15.4811L62.3992 14.7312C61.8978 14.7362 61.3944 14.7402 60.8893 14.7432L60.8938 15.4932C60.3922 15.4962 59.8889 15.4982 59.3839 15.4992L59.3824 14.7492C59.1303 14.7497 58.8779 14.75 58.625 14.75C58.3721 14.75 58.1197 14.7497 57.8676 14.7492L57.8662 15.4992C57.3611 15.4982 56.8578 15.4962 56.3562 15.4932L56.3607 14.7432C55.8556 14.7402 55.3522 14.7362 54.8508 14.7312L54.8433 15.4811C54.3389 15.4761 53.8365 15.47 53.3361 15.4629L53.3467 14.713C52.8406 14.7059 52.3366 14.6978 51.8348 14.6886L51.8212 15.4385C51.3164 15.4293 50.8139 15.4191 50.3137 15.4079L50.3305 14.6581C49.8246 14.6467 49.3212 14.6344 48.8203 14.621L48.8003 15.3708C48.2944 15.3573 47.791 15.3428 47.2903 15.3273L47.3135 14.5776C46.809 14.562 46.3073 14.5453 45.8083 14.5277L45.7818 15.2772C45.2745 15.2593 44.7701 15.2403 44.2687 15.2202L44.2986 14.4708C43.795 14.4507 43.2946 14.4296 42.7973 14.4075L42.7639 15.1567C42.256 15.1341 41.7513 15.1104 41.2501 15.0857L41.2871 14.3366C40.7818 14.3117 40.28 14.2857 39.7819 14.2587L39.7413 15.0076C39.2359 14.9801 38.7343 14.9517 38.2365 14.9221L38.2809 14.1734C37.7737 14.1433 37.2706 14.1122 36.7716 14.0799L36.7232 14.8283C36.2171 14.7956 35.7153 14.7618 35.2179 14.7269L35.2704 13.9788C34.7654 13.9433 34.265 13.9068 33.7693 13.8692L33.7126 14.617C33.2039 14.5784 32.7003 14.5387 32.2017 14.4978L32.263 13.7503C31.758 13.7089 31.2584 13.6664 30.7643 13.6227L30.6982 14.3698C30.1923 14.325 29.692 14.2791 29.1977 14.2321L29.2688 13.4854C28.761 13.4371 28.2595 13.3876 27.7646 13.3368L27.6881 14.0829C27.1801 14.0308 26.6789 13.9775 26.1848 13.923L26.267 13.1775C25.7625 13.1218 25.2654 13.0649 24.776 13.0067L24.6875 13.7515C24.1804 13.6912 23.6814 13.6296 23.1907 13.5668L23.2861 12.8228C22.7784 12.7578 22.2798 12.6914 21.7906 12.6236L21.6877 13.3665C21.1783 13.296 20.6789 13.2239 20.1898 13.1505L20.3011 12.4088C19.795 12.3329 19.3002 12.2555 18.8172 12.1766L18.6963 12.9168C18.1871 12.8337 17.6906 12.7489 17.2071 12.6626L17.3389 11.9243C16.8332 11.834 16.3423 11.7421 15.8667 11.6487L15.7221 12.3846C15.2114 12.2842 14.7178 12.182 14.2419 12.078L14.402 11.3453C13.8963 11.2348 13.4115 11.1224 12.9485 11.0083L12.769 11.7366C12.2571 11.6104 11.7704 11.482 11.3097 11.3514L11.5143 10.6298C11.0135 10.4879 10.5464 10.3439 10.114 10.1983L9.87464 10.9091C9.35348 10.7336 8.87805 10.5547 8.45048 10.3727L8.74422 9.68257C8.24664 9.47077 7.83092 9.26033 7.49505 9.05381L7.10221 9.6927C6.57969 9.37141 6.20269 9.04222 5.9816 8.70661L6.6079 8.29401C6.51945 8.15975 6.5 8.06518 6.5 8C6.5 7.93482 6.51945 7.84025 6.6079 7.70599L5.9816 7.29339C6.20269 6.95778 6.57969 6.62859 7.10221 6.3073L7.49505 6.94619C7.83092 6.73967 8.24664 6.52924 8.74422 6.31743L8.45047 5.62735C8.87805 5.44534 9.35348 5.26643 9.87463 5.09093L10.114 5.80171C10.5464 5.65608 11.0135 5.51213 11.5143 5.37016L11.3097 4.6486C11.7704 4.518 12.2571 4.38957 12.769 4.26345L12.9485 4.99167C13.4115 4.87757 13.8963 4.7652 14.402 4.65469L14.2419 3.92198C14.7178 3.81798 15.2114 3.71576 15.7221 3.6154L15.8667 4.35132C16.3423 4.25786 16.8332 4.16596 17.3389 4.07569L17.2071 3.33736C17.6905 3.25107 18.1871 3.16634 18.6963 3.0832L18.8172 3.82341C19.3002 3.74455 19.795 3.66711 20.3011 3.59115L20.1897 2.84946C20.6789 2.77605 21.1783 2.70404 21.6877 2.63348L21.7906 3.37639C22.2798 3.30864 22.7784 3.24221 23.2861 3.17715L23.1907 2.43324C23.6814 2.37036 24.1804 2.30877 24.6875 2.2485L24.776 2.99326C25.2654 2.9351 25.7625 2.87816 26.267 2.82248L26.1848 2.07701C26.6789 2.02247 27.1801 1.96916 27.6881 1.91709L27.7646 2.66318C28.2595 2.61244 28.761 2.56289 29.2688 2.51455L29.1977 1.76793C29.692 1.72087 30.1923 1.67497 30.6982 1.63024L30.7643 2.37733C31.2584 2.33365 31.758 2.2911 32.263 2.24969L32.2017 1.5022C32.7003 1.46132 33.2039 1.42157 33.7126 1.38296L33.7693 2.13081C34.265 2.09319 34.7654 2.05665 35.2704 2.02123L35.2179 1.27307C35.7153 1.23818 36.2171 1.20437 36.7232 1.17165L36.7716 1.92009C37.2706 1.88784 37.7737 1.85666 38.2809 1.82657L38.2365 1.07788C38.7343 1.04835 39.2359 1.01986 39.7413 0.992446L39.7819 1.74135C40.28 1.71432 40.7818 1.68834 41.2871 1.66342L41.2501 0.914326C41.7513 0.889602 42.2559 0.865917 42.7639 0.84329L42.7973 1.59255C43.2946 1.57039 43.795 1.54926 44.2986 1.52915L44.2687 0.779751C44.7701 0.759733 45.2745 0.740738 45.7818 0.722783L45.8083 1.47231C46.3072 1.45465 46.809 1.438 47.3135 1.42237L47.2903 0.672731C47.791 0.657218 48.2944 0.642711 48.8003 0.629227L48.8203 1.37896C49.3212 1.36561 49.8246 1.35326 50.3305 1.34194L50.3137 0.592124C50.8139 0.580922 51.3164 0.570715 51.8212 0.561517L51.8348 1.31139C52.3366 1.30225 52.8406 1.29411 53.3467 1.28698L53.3361 0.537051C53.8365 0.530002 54.3389 0.523943 54.8433 0.518887L54.8508 1.26885C55.3522 1.26382 55.8556 1.25979 56.3607 1.25677L56.3562 0.50678C56.8578 0.503777 57.3611 0.501764 57.8661 0.500757L57.8676 1.25076C58.1197 1.25025 58.3721 1.25 58.625 1.25C58.8779 1.25 59.1303 1.25025 59.3824 1.25076L59.3838 0.500757C59.8889 0.501764 60.3922 0.503777 60.8938 0.50678L60.8893 1.25677C61.3944 1.25979 61.8978 1.26382 62.3992 1.26885L62.4067 0.518887C62.9111 0.523943 63.4135 0.530002 63.9139 0.537051L63.9033 1.28698C64.4094 1.29411 64.9134 1.30225 65.4152 1.31139L65.4288 0.561517C65.9336 0.570714 66.4361 0.580922 66.9363 0.592124L66.9195 1.34194C67.4254 1.35326 67.9288 1.36561 68.4297 1.37896L68.4497 0.629227C68.9556 0.642711 69.459 0.657218 69.9597 0.672731L69.9365 1.42237C70.441 1.438 70.9427 1.45465 71.4417 1.47231L71.4682 0.722783C71.9755 0.740738 72.4799 0.759733 72.9813 0.779751L72.9514 1.52915C73.455 1.54926 73.9554 1.57039 74.4527 1.59255L74.4861 0.84329C74.994 0.865917 75.4987 0.889601 75.9999 0.914326L75.9629 1.66341C76.4682 1.68834 76.97 1.71432 77.4681 1.74134L77.5087 0.992446C78.0141 1.01986 78.5157 1.04835 79.0135 1.07788L78.9691 1.82657C79.4763 1.85666 79.9794 1.88784 80.4784 1.92009L80.5268 1.17165C81.0329 1.20437 81.5347 1.23818 82.0321 1.27307L81.9796 2.02123C82.4846 2.05665 82.985 2.09319 83.4807 2.13081L83.5374 1.38296C84.0461 1.42157 84.5497 1.46132 85.0483 1.5022L84.987 2.24969C85.492 2.2911 85.9916 2.33365 86.4857 2.37733L86.5518 1.63024C87.0577 1.67497 87.558 1.72087 88.0523 1.76793L87.9812 2.51455C88.489 2.56289 88.9905 2.61244 89.4854 2.66318L89.5619 1.91709C90.0699 1.96916 90.5711 2.02247 91.0652 2.07701L90.983 2.82248C91.4875 2.87816 91.9846 2.9351 92.474 2.99326L92.5625 2.2485C93.0696 2.30877 93.5686 2.37036 94.0593 2.43324L93.9639 3.17715C94.4716 3.24221 94.9702 3.30864 95.4594 3.37639L95.5623 2.63348C96.0717 2.70404 96.5711 2.77605 97.0602 2.84946L96.9489 3.59115C97.455 3.66711 97.9498 3.74455 98.4328 3.82341L98.5537 3.0832C99.0629 3.16634 99.5594 3.25107 100.043 3.33736L99.9111 4.07569C100.417 4.16596 100.908 4.25786 101.383 4.35132L101.528 3.6154C102.039 3.71576 102.532 3.81798 103.008 3.92198L102.848 4.65469C103.354 4.7652 103.838 4.87757 104.302 4.99167L104.481 4.26344C104.993 4.38956 105.48 4.51799 105.94 4.6486L105.736 5.37016C106.237 5.51213 106.704 5.65608 107.136 5.8017L107.375 5.09093C107.897 5.26643 108.372 5.44533 108.8 5.62734L108.506 6.31743C109.003 6.52923 109.419 6.73967 109.755 6.94619L110.148 6.3073Z" stroke="url(#paint1_linear_1_552)" stroke-width="1.5" stroke-dasharray="1.5 1.5"/>
<defs>
<linearGradient id="paint0_linear_1_552" x1="117.5" y1="13.25" x2="0.5" y2="13.25" gradientUnits="userSpaceOnUse">
<stop stop-color="#00F7F1"/>
<stop offset="1" stop-color="#00F7F1" stop-opacity="0.1"/>
</linearGradient>
<linearGradient id="paint1_linear_1_552" x1="111.5" y1="8" x2="5.75" y2="8" gradientUnits="userSpaceOnUse">
<stop stop-color="#00F7F1" stop-opacity="0.4"/>
<stop offset="1" stop-color="#00F7F1"/>
</linearGradient>
</defs>
</svg>
