<svg width="117" height="22" viewBox="0 0 117 22" fill="none" xmlns="http://www.w3.org/2000/svg">
<path d="M116.25 13.25C116.25 13.4359 116.11 13.7963 115.386 14.2951C114.691 14.7737 113.619 15.2652 112.166 15.7497C109.269 16.7155 105.038 17.5968 99.761 18.3409C89.2189 19.8277 74.6306 20.75 58.5 20.75C42.3694 20.75 27.7811 19.8277 17.239 18.3409C11.9623 17.5968 7.73091 16.7155 4.83445 15.7497C3.38121 15.2652 2.30861 14.7737 1.61411 14.2951C0.890349 13.7963 0.75 13.4359 0.75 13.25C0.75 13.064 0.890349 12.7037 1.61411 12.2049C2.30861 11.7262 3.38121 11.2347 4.83445 10.7502C7.73091 9.78445 11.9623 8.90314 17.239 8.15899C27.7811 6.67228 42.3694 5.74997 58.5 5.74997C74.6306 5.74997 89.2189 6.67228 99.761 8.15899C105.038 8.90314 109.269 9.78445 112.166 10.7502C113.619 11.2347 114.691 11.7262 115.386 12.2049C116.11 12.7037 116.25 13.064 116.25 13.25Z" stroke="url(#paint0_linear_1_704)" stroke-width="1.5"/>
<path d="M109.648 6.30727C110.17 6.62856 110.547 6.95775 110.768 7.29336L110.142 7.70596C110.231 7.84022 110.25 7.93479 110.25 7.99997C110.25 8.06515 110.231 8.15972 110.142 8.29398L110.768 8.70658C110.547 9.04219 110.17 9.37138 109.648 9.69267L109.255 9.05378C108.919 9.2603 108.503 9.47073 108.006 9.68254L108.3 10.3726C107.872 10.5546 107.397 10.7335 106.875 10.909L106.636 10.1983C106.204 10.3439 105.737 10.4878 105.236 10.6298L105.44 11.3514C104.98 11.482 104.493 11.6104 103.981 11.7365L103.802 11.0083C103.338 11.1224 102.854 11.2348 102.348 11.3453L102.508 12.078C102.032 12.182 101.539 12.2842 101.028 12.3846L100.883 11.6486C100.408 11.7421 99.9168 11.834 99.4111 11.9243L99.5429 12.6626C99.0594 12.7489 98.5629 12.8336 98.0537 12.9168L97.9328 12.1766C97.4498 12.2554 96.955 12.3329 96.4489 12.4088L96.5602 13.1505C96.0711 13.2239 95.5717 13.2959 95.0623 13.3665L94.9594 12.6236C94.4702 12.6913 93.9716 12.7578 93.4639 12.8228L93.5593 13.5667C93.0686 13.6296 92.5696 13.6912 92.0625 13.7515L91.974 13.0067C91.4846 13.0649 90.9875 13.1218 90.483 13.1775L90.5652 13.923C90.0711 13.9775 89.5699 14.0308 89.0619 14.0829L88.9854 13.3368C88.4905 13.3875 87.989 13.4371 87.4812 13.4854L87.5523 14.232C87.058 14.2791 86.5577 14.325 86.0518 14.3697L85.9857 13.6226C85.4916 13.6663 84.992 13.7089 84.487 13.7503L84.5483 14.4978C84.0497 14.5386 83.5461 14.5784 83.0374 14.617L82.9807 13.8692C82.485 13.9068 81.9846 13.9433 81.4796 13.9787L81.5321 14.7269C81.0347 14.7618 80.5329 14.7956 80.0268 14.8283L79.9784 14.0799C79.4794 14.1121 78.9763 14.1433 78.4691 14.1734L78.5135 14.9221C78.0157 14.9516 77.5141 14.9801 77.0087 15.0075L76.9681 14.2586C76.47 14.2856 75.9682 14.3116 75.4629 14.3366L75.4999 15.0856C74.9987 15.1104 74.4941 15.1341 73.9861 15.1567L73.9527 14.4074C73.4554 14.4296 72.955 14.4507 72.4514 14.4708L72.4813 15.2202C71.9799 15.2402 71.4755 15.2592 70.9682 15.2772L70.9417 14.5277C70.4427 14.5453 69.941 14.562 69.4365 14.5776L69.4597 15.3272C68.959 15.3428 68.4556 15.3573 67.9497 15.3707L67.9297 14.621C67.4288 14.6344 66.9254 14.6467 66.4195 14.658L66.4363 15.4078C65.9361 15.419 65.4336 15.4293 64.9288 15.4385L64.9152 14.6886C64.4134 14.6977 63.9094 14.7059 63.4033 14.713L63.4139 15.4629C62.9135 15.47 62.4111 15.476 61.9067 15.4811L61.8992 14.7311C61.3978 14.7361 60.8944 14.7402 60.3893 14.7432L60.3938 15.4932C59.8922 15.4962 59.3889 15.4982 58.8839 15.4992L58.8824 14.7492C58.6303 14.7497 58.3779 14.75 58.125 14.75C57.8721 14.75 57.6197 14.7497 57.3676 14.7492L57.3662 15.4992C56.8611 15.4982 56.3578 15.4962 55.8562 15.4932L55.8607 14.7432C55.3556 14.7402 54.8522 14.7361 54.3508 14.7311L54.3433 15.4811C53.8389 15.476 53.3365 15.47 52.8361 15.4629L52.8467 14.713C52.3406 14.7059 51.8366 14.6977 51.3348 14.6886L51.3212 15.4385C50.8164 15.4293 50.3139 15.419 49.8137 15.4078L49.8305 14.658C49.3246 14.6467 48.8212 14.6344 48.3203 14.621L48.3003 15.3707C47.7944 15.3573 47.291 15.3428 46.7903 15.3272L46.8135 14.5776C46.309 14.562 45.8073 14.5453 45.3083 14.5277L45.2818 15.2772C44.7745 15.2592 44.2701 15.2402 43.7687 15.2202L43.7986 14.4708C43.295 14.4507 42.7946 14.4296 42.2973 14.4074L42.2639 15.1567C41.756 15.1341 41.2513 15.1104 40.7501 15.0856L40.7871 14.3366C40.2818 14.3116 39.78 14.2856 39.2819 14.2586L39.2413 15.0075C38.7359 14.9801 38.2343 14.9516 37.7365 14.9221L37.7809 14.1734C37.2737 14.1433 36.7706 14.1121 36.2716 14.0799L36.2232 14.8283C35.7171 14.7956 35.2153 14.7618 34.7179 14.7269L34.7704 13.9787C34.2654 13.9433 33.765 13.9068 33.2693 13.8692L33.2126 14.617C32.7039 14.5784 32.2003 14.5386 31.7017 14.4978L31.763 13.7503C31.258 13.7089 30.7584 13.6663 30.2643 13.6226L30.1982 14.3697C29.6923 14.325 29.192 14.2791 28.6977 14.232L28.7688 13.4854C28.261 13.4371 27.7595 13.3875 27.2646 13.3368L27.1881 14.0829C26.6801 14.0308 26.1789 13.9775 25.6848 13.923L25.767 13.1775C25.2625 13.1218 24.7654 13.0649 24.276 13.0067L24.1875 13.7515C23.6804 13.6912 23.1814 13.6296 22.6907 13.5667L22.7861 12.8228C22.2784 12.7578 21.7798 12.6913 21.2906 12.6236L21.1877 13.3665C20.6783 13.2959 20.1789 13.2239 19.6898 13.1505L19.8011 12.4088C19.295 12.3329 18.8002 12.2554 18.3172 12.1766L18.1963 12.9168C17.6871 12.8336 17.1906 12.7489 16.7071 12.6626L16.8389 11.9243C16.3332 11.834 15.8423 11.7421 15.3667 11.6486L15.2221 12.3846C14.7114 12.2842 14.2178 12.182 13.7419 12.078L13.902 11.3453C13.3963 11.2348 12.9115 11.1224 12.4485 11.0083L12.269 11.7365C11.7571 11.6104 11.2704 11.482 10.8097 11.3514L11.0143 10.6298C10.5135 10.4878 10.0464 10.3439 9.614 10.1983L9.37464 10.909C8.85348 10.7335 8.37805 10.5546 7.95048 10.3726L8.24422 9.68254C7.74664 9.47074 7.33092 9.2603 6.99505 9.05378L6.60221 9.69267C6.07969 9.37138 5.70269 9.04219 5.4816 8.70658L6.1079 8.29398C6.01945 8.15972 6 8.06515 6 7.99997C6 7.93479 6.01945 7.84022 6.1079 7.70596L5.4816 7.29336C5.70269 6.95775 6.07969 6.62856 6.60221 6.30727L6.99505 6.94616C7.33092 6.73964 7.74664 6.5292 8.24422 6.3174L7.95047 5.62732C8.37805 5.44531 8.85348 5.2664 9.37463 5.0909L9.61399 5.80168C10.0464 5.65605 10.5135 5.5121 11.0143 5.37013L10.8097 4.64857C11.2704 4.51797 11.7571 4.38953 12.269 4.26341L12.4485 4.99164C12.9115 4.87754 13.3963 4.76517 13.902 4.65466L13.7419 3.92195C14.2178 3.81795 14.7114 3.71573 15.2221 3.61537L15.3667 4.35129C15.8423 4.25783 16.3332 4.16593 16.8389 4.07566L16.7071 3.33733C17.1905 3.25104 17.6871 3.16631 18.1963 3.08317L18.3172 3.82338C18.8002 3.74452 19.295 3.66708 19.8011 3.59112L19.6897 2.84943C20.1789 2.77602 20.6783 2.70401 21.1877 2.63345L21.2906 3.37636C21.7798 3.30861 22.2784 3.24218 22.7861 3.17712L22.6907 2.43321C23.1814 2.37033 23.6804 2.30874 24.1875 2.24847L24.276 2.99323C24.7654 2.93507 25.2625 2.87813 25.767 2.82245L25.6848 2.07698C26.1789 2.02244 26.6801 1.96913 27.1881 1.91706L27.2646 2.66315C27.7595 2.61241 28.261 2.56286 28.7688 2.51452L28.6977 1.7679C29.192 1.72084 29.6923 1.67494 30.1982 1.63021L30.2643 2.3773C30.7584 2.33362 31.258 2.29106 31.763 2.24966L31.7017 1.50217C32.2003 1.46129 32.7039 1.42154 33.2126 1.38293L33.2693 2.13078C33.765 2.09315 34.2654 2.05662 34.7704 2.0212L34.7179 1.27304C35.2153 1.23815 35.7171 1.20434 36.2232 1.17162L36.2716 1.92006C36.7706 1.88781 37.2737 1.85663 37.7809 1.82654L37.7365 1.07785C38.2343 1.04832 38.7359 1.01983 39.2413 0.992416L39.2819 1.74131C39.78 1.71429 40.2818 1.68831 40.7871 1.66338L40.7501 0.914295C41.2513 0.889571 41.7559 0.865886 42.2639 0.84326L42.2973 1.59252C42.7946 1.57036 43.295 1.54923 43.7986 1.52912L43.7687 0.77972C44.2701 0.759703 44.7745 0.740708 45.2818 0.722752L45.3083 1.47228C45.8072 1.45462 46.309 1.43797 46.8135 1.42234L46.7903 0.6727C47.291 0.657187 47.7944 0.642681 48.3003 0.629196L48.3203 1.37893C48.8212 1.36558 49.3246 1.35323 49.8305 1.34191L49.8137 0.592093C50.3139 0.580891 50.8164 0.570684 51.3212 0.561486L51.3348 1.31136C51.8366 1.30222 52.3406 1.29408 52.8467 1.28695L52.8361 0.53702C53.3365 0.529971 53.8389 0.523912 54.3433 0.518856L54.3508 1.26882C54.8522 1.26379 55.3556 1.25976 55.8607 1.25674L55.8562 0.506749C56.3578 0.503746 56.8611 0.501734 57.3661 0.500726L57.3676 1.25072C57.6197 1.25022 57.8721 1.24997 58.125 1.24997C58.3779 1.24997 58.6303 1.25022 58.8824 1.25072L58.8838 0.500726C59.3889 0.501734 59.8922 0.503746 60.3938 0.506749L60.3893 1.25674C60.8944 1.25976 61.3978 1.26379 61.8992 1.26882L61.9067 0.518856C62.4111 0.523912 62.9135 0.529971 63.4139 0.53702L63.4033 1.28695C63.9094 1.29408 64.4134 1.30222 64.9152 1.31136L64.9288 0.561486C65.4336 0.570684 65.9361 0.580891 66.4363 0.592093L66.4195 1.34191C66.9254 1.35323 67.4288 1.36558 67.9297 1.37893L67.9497 0.629196C68.4556 0.642681 68.959 0.657187 69.4597 0.6727L69.4365 1.42234C69.941 1.43797 70.4427 1.45462 70.9417 1.47228L70.9682 0.722752C71.4755 0.740708 71.9799 0.759703 72.4813 0.77972L72.4514 1.52912C72.955 1.54923 73.4554 1.57036 73.9527 1.59252L73.9861 0.843259C74.494 0.865886 74.9987 0.889571 75.4999 0.914295L75.4629 1.66338C75.9682 1.68831 76.47 1.71429 76.9681 1.74131L77.0087 0.992416C77.5141 1.01983 78.0157 1.04832 78.5135 1.07785L78.4691 1.82654C78.9763 1.85663 79.4794 1.88781 79.9784 1.92006L80.0268 1.17162C80.5329 1.20434 81.0347 1.23815 81.5321 1.27304L81.4796 2.0212C81.9846 2.05662 82.485 2.09315 82.9807 2.13078L83.0374 1.38293C83.5461 1.42154 84.0497 1.46129 84.5483 1.50217L84.487 2.24966C84.992 2.29106 85.4916 2.33362 85.9857 2.3773L86.0518 1.63021C86.5577 1.67494 87.058 1.72084 87.5523 1.7679L87.4812 2.51452C87.989 2.56286 88.4905 2.61241 88.9854 2.66315L89.0619 1.91706C89.5699 1.96913 90.0711 2.02244 90.5652 2.07698L90.483 2.82245C90.9875 2.87813 91.4846 2.93507 91.974 2.99323L92.0625 2.24847C92.5696 2.30874 93.0686 2.37033 93.5593 2.4332L93.4639 3.17712C93.9716 3.24218 94.4702 3.30861 94.9594 3.37636L95.0623 2.63345C95.5717 2.70401 96.0711 2.77602 96.5602 2.84943L96.4489 3.59112C96.955 3.66708 97.4498 3.74452 97.9328 3.82337L98.0537 3.08317C98.5629 3.16631 99.0594 3.25104 99.5429 3.33733L99.4111 4.07566C99.9168 4.16593 100.408 4.25783 100.883 4.35129L101.028 3.61537C101.539 3.71573 102.032 3.81795 102.508 3.92195L102.348 4.65466C102.854 4.76517 103.338 4.87754 103.802 4.99164L103.981 4.26341C104.493 4.38953 104.98 4.51796 105.44 4.64857L105.236 5.37013C105.737 5.5121 106.204 5.65605 106.636 5.80167L106.875 5.09089C107.397 5.2664 107.872 5.4453 108.3 5.62731L108.006 6.3174C108.503 6.5292 108.919 6.73963 109.255 6.94616L109.648 6.30727Z" stroke="url(#paint1_linear_1_704)" stroke-width="1.5" stroke-dasharray="1.5 1.5"/>
<defs>
<linearGradient id="paint0_linear_1_704" x1="117" y1="13.25" x2="0" y2="13.25" gradientUnits="userSpaceOnUse">
<stop stop-color="#00F7F1"/>
<stop offset="1" stop-color="#00F7F1" stop-opacity="0.1"/>
</linearGradient>
<linearGradient id="paint1_linear_1_704" x1="111" y1="7.99997" x2="5.25" y2="7.99997" gradientUnits="userSpaceOnUse">
<stop stop-color="#00F7F1" stop-opacity="0.4"/>
<stop offset="1" stop-color="#00F7F1"/>
</linearGradient>
</defs>
</svg>
