<svg width="85" height="22" viewBox="0 0 85 22" fill="none" xmlns="http://www.w3.org/2000/svg">
<path d="M83.375 13.5C83.375 13.7942 83.2278 14.1684 82.7575 14.6239C82.2863 15.0803 81.5508 15.5564 80.5357 16.0321C78.5094 16.9816 75.5295 17.8563 71.7875 18.5979C64.3159 20.0788 53.9608 21 42.5 21C31.0392 21 20.6841 20.0788 13.2125 18.5979C9.47049 17.8563 6.49064 16.9816 4.46434 16.0321C3.44919 15.5564 2.71367 15.0803 2.24247 14.6239C1.7722 14.1684 1.625 13.7942 1.625 13.5C1.625 13.2058 1.7722 12.8316 2.24247 12.3761C2.71367 11.9197 3.44919 11.4436 4.46434 10.9679C6.49064 10.0184 9.47049 9.14372 13.2125 8.40206C20.6841 6.92119 31.0392 6 42.5 6C53.9608 6 64.3159 6.92119 71.7875 8.40206C75.5295 9.14372 78.5094 10.0184 80.5357 10.9679C81.5508 11.4436 82.2863 11.9197 82.7575 12.3761C83.2278 12.8316 83.375 13.2058 83.375 13.5Z" stroke="url(#paint0_linear_1_566)" stroke-width="1.5"/>
<path d="M78.6823 6.38418C79.1544 6.75179 79.4903 7.13027 79.6786 7.51736L79.0041 7.84537C79.0771 7.99544 79.1058 8.1283 79.1058 8.25C79.1058 8.37169 79.0771 8.50456 79.0041 8.65463L79.6786 8.98264C79.4903 9.36973 79.1545 9.74821 78.6823 10.1158L78.2216 9.52405C77.9129 9.76437 77.5246 10.0093 77.0541 10.2555L77.4018 10.92C76.9885 11.1362 76.5266 11.3476 76.0186 11.5537L75.7366 10.8587C75.3117 11.031 74.8507 11.2006 74.3547 11.3669L74.5931 12.078C74.1358 12.2313 73.6518 12.3811 73.1425 12.5271L72.9359 11.8061C72.4766 11.9377 71.9954 12.0665 71.4931 12.1922L71.6752 12.9198C71.1982 13.0391 70.7032 13.1555 70.1913 13.2688L70.0293 12.5365C69.5542 12.6416 69.0638 12.7441 68.5586 12.8438L68.7039 13.5796C68.2194 13.6752 67.7221 13.7682 67.2123 13.8585L67.0815 13.12C66.5978 13.2057 66.1025 13.2889 65.5963 13.3696L65.7144 14.1103C65.2234 14.1886 64.7225 14.2644 64.2119 14.3378L64.1052 13.5954C63.6156 13.6658 63.1169 13.7339 62.6096 13.7996L62.706 14.5434C62.2109 14.6075 61.7079 14.6694 61.1972 14.7289L61.1104 13.984C60.6168 14.0415 60.1159 14.0969 59.608 14.15L59.686 14.8959C59.1881 14.948 58.6835 14.9979 58.1728 15.0456L58.103 14.2988C57.6065 14.3452 57.1039 14.3895 56.5956 14.4316L56.6575 15.179C56.1572 15.2204 55.6514 15.2598 55.1404 15.297L55.086 14.549C54.5883 14.5852 54.0858 14.6194 53.5784 14.6515L53.6258 15.4C53.125 15.4317 52.6197 15.4613 52.1102 15.4889L52.0696 14.74C51.5702 14.767 51.0666 14.792 50.559 14.815L50.5929 15.5642C50.0904 15.5869 49.5841 15.6076 49.0742 15.6263L49.0467 14.8768C48.5455 14.8952 48.0408 14.9115 47.5328 14.9259L47.554 15.6756C47.05 15.6898 46.5428 15.702 46.0326 15.7122L46.0176 14.9624C45.5165 14.9724 45.0125 14.9804 44.5057 14.9865L44.5147 15.7364C44.011 15.7424 43.5047 15.7465 42.9959 15.7485L42.993 14.9985C42.7403 14.9995 42.487 15 42.2332 15C41.9793 15 41.7261 14.9995 41.4734 14.9985L41.4705 15.7485C40.9617 15.7465 40.4554 15.7424 39.9517 15.7364L39.9607 14.9865C39.4539 14.9804 38.9499 14.9724 38.4488 14.9624L38.4338 15.7122C37.9236 15.702 37.4164 15.6898 36.9124 15.6756L36.9336 14.9259C36.4256 14.9115 35.9209 14.8952 35.4197 14.8768L35.3922 15.6263C34.8823 15.6076 34.376 15.5869 33.8735 15.5642L33.9073 14.815C33.3998 14.792 32.8962 14.767 32.3967 14.74L32.3562 15.4889C31.8466 15.4613 31.3413 15.4317 30.8406 15.4L30.8879 14.6515C30.3806 14.6194 29.878 14.5852 29.3804 14.549L29.326 15.297C28.815 15.2598 28.3092 15.2204 27.8089 15.179L27.8708 14.4316C27.3625 14.3895 26.8599 14.3452 26.3633 14.2988L26.2936 15.0456C25.7828 14.9979 25.2783 14.948 24.7803 14.8959L24.8583 14.15C24.3505 14.0969 23.8496 14.0415 23.356 13.984L23.2692 14.7289C22.7585 14.6694 22.2554 14.6075 21.7604 14.5434L21.8568 13.7996C21.3495 13.7339 20.8508 13.6658 20.3612 13.5954L20.2545 14.3378C19.7439 14.2644 19.2429 14.1886 18.752 14.1103L18.8701 13.3696C18.3638 13.2889 17.8686 13.2057 17.3849 13.12L17.2541 13.8585C16.7443 13.7682 16.2469 13.6752 15.7625 13.5796L15.9078 12.8438C15.4026 12.7441 14.9122 12.6416 14.4371 12.5365L14.2751 13.2688C13.7631 13.1555 13.2682 13.0391 12.7912 12.9198L12.9733 12.1922C12.4709 12.0665 11.9897 11.9377 11.5305 11.8061L11.3239 12.5271C10.8146 12.3811 10.3306 12.2313 9.87331 12.078L10.1117 11.3669C9.61572 11.2006 9.15466 11.031 8.72974 10.8587L8.44783 11.5537C7.93982 11.3476 7.47785 11.1362 7.06461 10.92L7.41226 10.2555C6.94175 10.0093 6.55347 9.76437 6.24482 9.52405L5.78405 10.1158C5.31193 9.74821 4.97607 9.36973 4.78781 8.98264L5.46228 8.65463C5.3893 8.50456 5.3606 8.3717 5.3606 8.25C5.3606 8.12831 5.3893 7.99544 5.46228 7.84537L4.78781 7.51736C4.97606 7.13027 5.31193 6.75179 5.78405 6.38418L6.24482 6.97595C6.55347 6.73563 6.94175 6.49066 7.41226 6.24452L7.06461 5.57996C7.47785 5.36377 7.93982 5.15238 8.44783 4.94632L8.72974 5.64132C9.15466 5.46896 9.61572 5.29937 10.1117 5.13311L9.87332 4.422C10.3306 4.26871 10.8146 4.11894 11.3239 3.97295L11.5305 4.69391C11.9897 4.56227 12.471 4.43349 12.9733 4.3078L12.7912 3.58023C13.2682 3.46087 13.7631 3.34448 14.2751 3.23121L14.4371 3.96351C14.9122 3.8584 15.4026 3.75592 15.9078 3.65621L15.7625 2.92041C16.2469 2.82479 16.7443 2.73178 17.2541 2.64149L17.3849 3.37999C17.8686 3.29432 18.3638 3.21107 18.8701 3.13035L18.752 2.38971C19.2429 2.31143 19.7439 2.23556 20.2545 2.16218L20.3612 2.90455C20.8508 2.83418 21.3495 2.7661 21.8568 2.70038L21.7604 1.95659C22.2554 1.89247 22.7585 1.83061 23.2692 1.77107L23.356 2.51603C23.8496 2.45849 24.3505 2.40313 24.8583 2.35002L24.7803 1.60409C25.2783 1.55202 25.7828 1.5021 26.2936 1.45441L26.3634 2.20116C26.8599 2.15479 27.3625 2.11053 27.8708 2.06843L27.8089 1.32099C28.3092 1.27956 28.815 1.24021 29.326 1.20301L29.3804 1.95103C29.878 1.9148 30.3806 1.88061 30.888 1.84851L30.8406 1.10001C31.3414 1.06833 31.8466 1.03869 32.3562 1.01112L32.3967 1.76003C32.8962 1.73301 33.3998 1.708 33.9074 1.68504L33.8735 0.935809C34.376 0.91308 34.8823 0.892357 35.3922 0.873684L35.4197 1.62318C35.9209 1.60483 36.4256 1.58846 36.9336 1.57413L36.9124 0.824424C37.4164 0.810202 37.9236 0.79797 38.4338 0.78777L38.4488 1.53762C38.9499 1.5276 39.4539 1.51955 39.9607 1.51351L39.9517 0.763563C40.4554 0.757558 40.9617 0.753528 41.4705 0.751511L41.4734 1.5015C41.7261 1.5005 41.9793 1.5 42.2332 1.5C42.487 1.5 42.7403 1.5005 42.9929 1.5015L42.9959 0.751511C43.5047 0.753528 44.011 0.757558 44.5147 0.763563L44.5057 1.51351C45.0125 1.51955 45.5165 1.5276 46.0176 1.53762L46.0326 0.78777C46.5428 0.79797 47.05 0.810202 47.554 0.824424L47.5328 1.57413C48.0408 1.58846 48.5455 1.60483 49.0467 1.62318L49.0742 0.873684C49.5841 0.892358 50.0904 0.913081 50.5929 0.935809L50.559 1.68504C51.0666 1.708 51.5702 1.73301 52.0697 1.76003L52.1102 1.01112C52.6198 1.03869 53.125 1.06833 53.6258 1.10001L53.5784 1.84852C54.0858 1.88061 54.5884 1.9148 55.086 1.95103L55.1404 1.20301C55.6514 1.24021 56.1572 1.27956 56.6575 1.32099L56.5956 2.06843C57.1039 2.11053 57.6065 2.15479 58.103 2.20116L58.1728 1.45441C58.6836 1.5021 59.1881 1.55202 59.6861 1.60409L59.608 2.35002C60.1159 2.40313 60.6168 2.45849 61.1104 2.51603L61.1972 1.77107C61.7079 1.83061 62.211 1.89247 62.706 1.95659L62.6096 2.70038C63.1169 2.7661 63.6156 2.83418 64.1052 2.90455L64.2119 2.16218C64.7225 2.23556 65.2235 2.31144 65.7144 2.38971L65.5963 3.13035C66.1026 3.21107 66.5978 3.29432 67.0815 3.38L67.2123 2.64149C67.7221 2.73178 68.2195 2.82479 68.7039 2.92041L68.5586 3.65621C69.0638 3.75592 69.5542 3.8584 70.0293 3.96351L70.1913 3.23122C70.7033 3.34448 71.1982 3.46088 71.6752 3.58024L71.4931 4.30781C71.9954 4.43349 72.4766 4.56228 72.9359 4.69391L73.1425 3.97295C73.6518 4.11894 74.1358 4.26871 74.5931 4.42201L74.3547 5.13312C74.8507 5.29937 75.3117 5.46896 75.7366 5.64132L76.0186 4.94632C76.5266 5.15238 76.9885 5.36377 77.4018 5.57996L77.0541 6.24452C77.5246 6.49066 77.9129 6.73563 78.2216 6.97595L78.6823 6.38418Z" stroke="url(#paint1_linear_1_566)" stroke-width="1.5" stroke-dasharray="1.5 1.5"/>
<defs>
<linearGradient id="paint0_linear_1_566" x1="84.125" y1="13.5" x2="0.875" y2="13.5" gradientUnits="userSpaceOnUse">
<stop stop-color="#00F7F1"/>
<stop offset="1" stop-color="#00F7F1" stop-opacity="0.1"/>
</linearGradient>
<linearGradient id="paint1_linear_1_566" x1="79.8558" y1="8.25" x2="4.6106" y2="8.25" gradientUnits="userSpaceOnUse">
<stop stop-color="#00F7F1" stop-opacity="0.4"/>
<stop offset="1" stop-color="#00F7F1"/>
</linearGradient>
</defs>
</svg>
