<svg width="25" height="25" viewBox="0 0 25 25" fill="none" xmlns="http://www.w3.org/2000/svg">
<path d="M23.2 14.725C23.1212 14.7841 23.0315 14.8271 22.9361 14.8515C22.8407 14.876 22.7414 14.8814 22.6439 14.8675C22.5464 14.8535 22.4526 14.8205 22.3679 14.7704C22.2831 14.7202 22.2091 14.6538 22.15 14.575C21.6979 13.9674 21.1095 13.4744 20.4322 13.1357C19.7548 12.797 19.0073 12.6221 18.25 12.625C18.1025 12.625 17.9583 12.5815 17.8354 12.4999C17.7125 12.4184 17.6164 12.3024 17.5591 12.1666C17.5201 12.0743 17.5001 11.9752 17.5001 11.875C17.5001 11.7748 17.5201 11.6757 17.5591 11.5834C17.6164 11.4476 17.7125 11.3316 17.8354 11.25C17.9583 11.1685 18.1025 11.125 18.25 11.125C18.6708 11.125 19.0832 11.0069 19.4403 10.7843C19.7974 10.5616 20.0849 10.2433 20.2701 9.86541C20.4553 9.48756 20.5309 9.06533 20.4882 8.64668C20.4455 8.22804 20.2862 7.82976 20.0285 7.49708C19.7708 7.16441 19.425 6.91068 19.0303 6.7647C18.6356 6.61873 18.2079 6.58637 17.7957 6.6713C17.3836 6.75622 17.0035 6.95503 16.6986 7.24515C16.3938 7.53526 16.1764 7.90504 16.0712 8.3125C16.0466 8.40791 16.0034 8.49754 15.9442 8.57627C15.8849 8.655 15.8107 8.72128 15.7259 8.77134C15.641 8.8214 15.5471 8.85424 15.4495 8.86801C15.3519 8.88177 15.2526 8.87618 15.1572 8.85156C15.0618 8.82694 14.9721 8.78376 14.8934 8.7245C14.8147 8.66524 14.7484 8.59105 14.6983 8.50617C14.6483 8.4213 14.6154 8.32739 14.6017 8.22981C14.5879 8.13224 14.5935 8.03291 14.6181 7.9375C14.7641 7.37248 15.04 6.84934 15.4238 6.4097C15.8076 5.97007 16.2887 5.62607 16.8288 5.40508C17.3689 5.18409 17.9532 5.09221 18.535 5.13675C19.1169 5.18129 19.6804 5.36102 20.1806 5.66164C20.6808 5.96225 21.1039 6.37547 21.4163 6.86839C21.7287 7.36132 21.9217 7.92035 21.9801 8.50101C22.0384 9.08167 21.9604 9.66793 21.7523 10.2131C21.5441 10.7583 21.2117 11.2475 20.7812 11.6416C21.8011 12.0831 22.6876 12.7838 23.3528 13.6741C23.4119 13.7531 23.4548 13.8429 23.4791 13.9385C23.5034 14.0341 23.5086 14.1336 23.4944 14.2312C23.4802 14.3289 23.4469 14.4227 23.3964 14.5074C23.3459 14.5922 23.2791 14.6661 23.2 14.725ZM18.1487 20.5C18.203 20.5854 18.2394 20.6808 18.2559 20.7806C18.2723 20.8804 18.2683 20.9825 18.2443 21.0808C18.2202 21.179 18.1765 21.2714 18.1158 21.3523C18.0551 21.4332 17.9787 21.5011 17.8911 21.5517C17.8036 21.6023 17.7067 21.6347 17.6062 21.6469C17.5058 21.6591 17.404 21.6508 17.3068 21.6227C17.2097 21.5945 17.1193 21.5469 17.041 21.4829C16.9627 21.4188 16.8981 21.3396 16.8512 21.25C16.3788 20.45 15.7059 19.787 14.899 19.3264C14.0921 18.8659 13.1791 18.6236 12.25 18.6236C11.3209 18.6236 10.4079 18.8659 9.60097 19.3264C8.79407 19.787 8.1212 20.45 7.64874 21.25C7.60186 21.3396 7.53733 21.4188 7.45903 21.4829C7.38073 21.5469 7.29029 21.5945 7.19315 21.6227C7.096 21.6508 6.99416 21.6591 6.89374 21.6469C6.79333 21.6347 6.69642 21.6023 6.60885 21.5517C6.52127 21.5011 6.44484 21.4332 6.38416 21.3523C6.32347 21.2714 6.27978 21.179 6.25572 21.0808C6.23165 20.9825 6.22771 20.8804 6.24412 20.7806C6.26054 20.6808 6.29698 20.5854 6.35124 20.5C7.07837 19.2507 8.18705 18.2675 9.51437 17.695C8.76749 17.1232 8.21858 16.3316 7.94481 15.4317C7.67103 14.5318 7.68615 13.5687 7.98804 12.6778C8.28993 11.7869 8.86341 11.013 9.62787 10.4649C10.3923 9.91677 11.3093 9.62199 12.25 9.62199C13.1906 9.62199 14.1077 9.91677 14.8721 10.4649C15.6366 11.013 16.2101 11.7869 16.5119 12.6778C16.8138 13.5687 16.829 14.5318 16.5552 15.4317C16.2814 16.3316 15.7325 17.1232 14.9856 17.695C16.3129 18.2675 17.4216 19.2507 18.1487 20.5ZM12.25 17.125C12.8433 17.125 13.4234 16.9491 13.9167 16.6194C14.4101 16.2898 14.7946 15.8212 15.0216 15.273C15.2487 14.7249 15.3081 14.1217 15.1923 13.5397C15.0766 12.9578 14.7909 12.4232 14.3713 12.0037C13.9518 11.5841 13.4172 11.2984 12.8353 11.1826C12.2533 11.0669 11.6501 11.1263 11.1019 11.3534C10.5538 11.5804 10.0852 11.9649 9.75559 12.4583C9.42594 12.9516 9.24999 13.5317 9.24999 14.125C9.24999 14.9206 9.56606 15.6837 10.1287 16.2463C10.6913 16.8089 11.4543 17.125 12.25 17.125ZM6.99999 11.875C6.99999 11.6761 6.92098 11.4853 6.78032 11.3447C6.63967 11.204 6.44891 11.125 6.24999 11.125C5.82918 11.125 5.4168 11.0069 5.05971 10.7843C4.70263 10.5616 4.41514 10.2433 4.2299 9.86541C4.04466 9.48756 3.9691 9.06533 4.01181 8.64668C4.05451 8.22804 4.21376 7.82976 4.47147 7.49708C4.72918 7.16441 5.07502 6.91068 5.46971 6.7647C5.8644 6.61873 6.29212 6.58637 6.70428 6.6713C7.11643 6.75622 7.49651 6.95503 7.80135 7.24515C8.10618 7.53526 8.32354 7.90504 8.42874 8.3125C8.47847 8.5052 8.60271 8.67025 8.77413 8.77134C8.94555 8.87243 9.15011 8.90129 9.34281 8.85156C9.5355 8.80183 9.70055 8.67759 9.80165 8.50617C9.90274 8.33475 9.9316 8.1302 9.88187 7.9375C9.73585 7.37248 9.45997 6.84934 9.07619 6.4097C8.69241 5.97007 8.21132 5.62607 7.6712 5.40508C7.13108 5.18409 6.54683 5.09221 5.96495 5.13675C5.38307 5.18129 4.81962 5.36102 4.31943 5.66164C3.81923 5.96225 3.3961 6.37547 3.0837 6.86839C2.7713 7.36132 2.57826 7.92035 2.51993 8.50101C2.46161 9.08167 2.53961 9.66793 2.74772 10.2131C2.95584 10.7583 3.28833 11.2475 3.71874 11.6416C2.69995 12.0835 1.81441 12.7842 1.14999 13.6741C1.03052 13.8332 0.979158 14.0333 1.0072 14.2303C1.03524 14.4273 1.1404 14.6051 1.29953 14.7245C1.45866 14.844 1.65873 14.8954 1.85573 14.8673C2.05273 14.8393 2.23052 14.7341 2.34999 14.575C2.80204 13.9674 3.39044 13.4744 4.06783 13.1357C4.74522 12.797 5.49266 12.6221 6.24999 12.625C6.44891 12.625 6.63967 12.546 6.78032 12.4053C6.92098 12.2647 6.99999 12.0739 6.99999 11.875Z" fill="white"/>
</svg>
