<svg width="18" height="18" viewBox="0 0 18 18" fill="none" xmlns="http://www.w3.org/2000/svg">
<path d="M2.99989 5.00025L8.99989 8.00025L14.9999 5.00025L8.99989 2.00025L2.99989 5.00025ZM9.48889 0.11625L17.4819 4.19225C17.9679 4.44025 18.1429 5.00225 17.8729 5.44925C17.7787 5.60281 17.6437 5.72711 17.4829 5.80825L9.48889 9.88425C9.33723 9.96073 9.16974 10.0006 8.99989 10.0006C8.83004 10.0006 8.66255 9.96073 8.51089 9.88425L0.517889 5.80825C0.0318889 5.56025 -0.143111 4.99825 0.126889 4.55125C0.221036 4.39769 0.356079 4.27339 0.516889 4.19225L8.51089 0.11625C8.81489 -0.03875 9.18489 -0.03875 9.48889 0.11625ZM9.48889 13.8822C9.33761 13.96 9.16997 14.0005 8.99989 14.0005C8.82981 14.0005 8.66217 13.96 8.51089 13.8822L0.517889 9.73525C0.0318889 9.48325 -0.143111 8.91125 0.126889 8.45725C0.220418 8.30168 0.355477 8.17528 0.516889 8.09225C0.633479 8.0316 0.762967 7.99993 0.894389 7.99993C1.02581 7.99993 1.1553 8.0316 1.27189 8.09225L8.51189 11.8472C8.81489 12.0052 9.18489 12.0052 9.48889 11.8472L16.7279 8.09225C16.8444 8.03177 16.9737 8.00019 17.1049 8.00019C17.2361 8.00019 17.3654 8.03177 17.4819 8.09225C17.9679 8.34425 18.1429 8.91625 17.8729 9.37025C17.7794 9.52582 17.6443 9.65222 17.4829 9.73525L9.48889 13.8822ZM9.48889 17.8822C9.33761 17.96 9.16997 18.0005 8.99989 18.0005C8.82981 18.0005 8.66217 17.96 8.51089 17.8822L0.517889 13.7353C0.0318889 13.4833 -0.143111 12.9112 0.126889 12.4572C0.220418 12.3017 0.355477 12.1753 0.516889 12.0922C0.633479 12.0316 0.762967 11.9999 0.894389 11.9999C1.02581 11.9999 1.1553 12.0316 1.27189 12.0922L8.51189 15.8472C8.81489 16.0053 9.18489 16.0053 9.48889 15.8472L16.7279 12.0922C16.8444 12.0318 16.9737 12.0002 17.1049 12.0002C17.2361 12.0002 17.3654 12.0318 17.4819 12.0922C17.9679 12.3442 18.1429 12.9163 17.8729 13.3703C17.7794 13.5258 17.6443 13.6522 17.4829 13.7353L9.48889 17.8822Z" fill="white"/>
</svg>
